<svg xmlns="http://www.w3.org/2000/svg" enable-background="new 0 0 3000 3000" viewBox="0 0 3000 3000"><linearGradient id="a" x1="1446.179" x2="2978.282" y1="3040.562" y2="1546.223" gradientUnits="userSpaceOnUse"><stop offset="0" stop-color="#fef0ca"/><stop offset="1" stop-color="#fabd23"/></linearGradient><path fill="url(#a)" d="M2120.439,2474.699c10.657-5.807,22.77-9.236,35.747-9.088c14.307,0.167,25.811,3.839,35.161,9.088   h267.463c1.413-7.554,2.237-15.319,2.237-23.283c0-62.683-45.921-114.762-105.953-124.34h-0.086   c1.368-4.704,2.138-9.663,2.138-14.794c0-30.186-24.459-54.645-54.645-54.645c-7.183,0-13.938,1.454-20.266,3.934   c-31.897-43.955-83.72-72.517-142.299-72.517c-23.944,0-46.777,4.789-67.557,13.426c-20.78,8.722-39.593,21.293-55.413,36.772   c-14.88-10.776-33.01-17.104-52.763-17.104c-21.55,0-41.391,7.611-56.955,20.267c-15.479,12.656-26.68,30.443-31.127,50.711   c-2.823-0.086-5.646-0.171-8.466-0.171c-107.47,0-196.319,78.821-212.523,181.744H2120.439z"/><linearGradient id="b" x1="1495.137" x2="2821.321" y1="2964.508" y2="1671.012" gradientTransform="matrix(-1 0 0 1 2889.89 0)" gradientUnits="userSpaceOnUse"><stop offset="0" stop-color="#fef0ca"/><stop offset="1" stop-color="#fabd23"/></linearGradient><path fill="url(#b)" d="M811.116,2474.699   c-9.225-5.027-19.71-7.995-30.943-7.866c-12.384,0.144-22.341,3.322-30.435,7.866H518.222c-1.223-6.54-1.937-13.26-1.937-20.154   c0-54.258,39.749-99.338,91.712-107.628h0.075c-1.184-4.072-1.851-8.365-1.851-12.806c0-26.13,21.172-47.3,47.301-47.3   c6.217,0,12.065,1.258,17.543,3.405c27.61-38.047,72.468-62.771,123.174-62.771c20.725,0,40.489,4.145,58.477,11.622   c17.987,7.55,34.271,18.431,47.966,31.829c12.88-9.327,28.573-14.804,45.671-14.804c18.654,0,35.828,6.588,49.3,17.543   c13.398,10.955,23.094,26.352,26.943,43.895c2.443-0.074,4.887-0.148,7.328-0.148c93.026,0,169.934,68.228,183.959,157.317H811.116   z"/><path fill="#FEF0CA" d="M374.637,2512.421c33.478,35.063,185.673,87.762,524.403,135.234    c338.73,47.471,593.954-12.565,1052.687-20.208c458.734-7.643,675.852-83.499,677.989-135.923    C2631.854,2439.099,255.221,2387.351,374.637,2512.421z"/><g><path fill="#E38E82" d="M812.395,1136.064l59.085-98.947l78.949,54.33l219.81-97.007l21.75,51.779    c0,0-160.092,144.906-263.861,145.926C896.781,1192.455,812.395,1136.064,812.395,1136.064z"/><path fill="#D8776A" d="M1126.483,1099.118c-19.866,14.734-42.878,30.71-67.132,45.113    c-24.418-19.452-52.727-50.824-70.027-69.946l55.79-24.666L1126.483,1099.118z" opacity=".5"/><path fill="#D8776A" d="M964.418,1189.412c-12.601,1.358-24.825,2.264-36.294,2.716    c-31.315,1.283-115.75-56.064-115.75-56.064l59.082-98.923l57.448,39.493c-1.057,16.752-4.628,60.486-13.231,75.049    C915.672,1151.683,931.745,1180.206,964.418,1189.412z" opacity=".2"/><path fill="#D8776A" d="M944.455,1133.173c-8.06-18.493,1.612-38.709,4.69-38.239    c3.077,0.471,12.024,15.568,8.236,14.548c-3.788-1.02-7.215-9.275-7.215-9.275S947.154,1139.367,944.455,1133.173z" opacity=".2"/><path fill="#E38E82" d="M1222.089,936.172c4.2,1.397,5.301,5.235,3.324,10.106c-4.21,10.376-9.443,20.269-14.32,30.746     c20.693-7.586,43.127-15.319,63.819-22.905c1.505,2.437,0.697,5.405-0.676,7.32c-1.373,1.916-3.346,3.302-5.301,4.618     c-7.66,5.159-15.646,9.833-23.895,13.986c15.06-3.414,25.789-6.221,40.074-8.843c0.767,2.099,0.322,5.376-1.212,7     c-1.535,1.624-5.27,3.417-7.287,4.379c-9.162,4.368-16.654,7.94-25.817,12.308c10.604-1.661,21.867-2.269,32.471-3.929     c0.953,1.443,0.388,4.466-0.65,5.849c-1.039,1.383-2.548,2.362-4.122,3.078c-7.994,3.64-18.926,7.322-25.429,9.972     c7.221-0.407,14.749-0.077,21.969-0.484c1.284,6.688-7.485,6.413-12.505,8.667c-20.834,9.358-42.662,19.27-63.497,28.626     c0,0-15.748,7.022-28.061,11.317c-0.245-0.69-20.055-48.214-22.019-52.097c5.815-2.423,17.99-7.774,17.99-7.774     C1176.374,969.762,1192.021,967.203,1222.089,936.172z"/><path fill="#D8776A" d="M1239.024,981.872c0.172,0.52,2.728,0.14,5.706-0.85c2.978-0.99,5.253-2.215,5.08-2.736     c-0.173-0.52-2.728-0.14-5.706,0.85C1241.125,980.127,1238.85,981.351,1239.024,981.872z"/><path fill="#D8776A" d="M1243.23,997.527c0.173,0.521,2.728,0.14,5.706-0.85c2.979-0.99,5.253-2.215,5.08-2.735     c-0.173-0.521-2.728-0.14-5.706,0.85C1245.331,995.782,1243.056,997.006,1243.23,997.527z"/><path fill="#D8776A" d="M1245.937,1012.484c0.173,0.52,2.728,0.14,5.706-0.85c2.978-0.99,5.253-2.215,5.08-2.736     c-0.173-0.521-2.728-0.14-5.706,0.851C1248.038,1010.739,1245.764,1011.963,1245.937,1012.484z"/><path fill="#D8776A" d="M1236.91,1015.345c0.518-0.181-1.289-6.691-4.034-14.54c-2.746-7.849-5.392-14.065-5.909-13.884     c-0.519,0.181,1.288,6.691,4.034,14.54C1233.746,1009.31,1236.392,1015.526,1236.91,1015.345z"/><path fill="#D8776A" d="M1197.051,1005.521c0.045,0.129,0.567,0.049,1.489-0.212c0.905-0.297,2.294-0.598,3.778-1.504     c3.084-1.485,7.023-4.818,9.166-9.794c2.219-4.934,2.189-9.913,1.855-13.281c-0.414-3.415-1.224-5.407-1.483-5.333     c-0.269,0.069,0.036,2.12,0.08,5.419c-0.029,3.263-0.241,7.909-2.271,12.394c-1.954,4.52-5.314,7.665-8.066,9.388     c-1.302,1.008-2.56,1.489-3.351,1.994C1197.441,1005.065,1197.007,1005.391,1197.051,1005.521z"/><path fill="#D8776A" d="M1168.707,1001.447c-0.137,0.003-0.226,0.626-0.269,1.76c-0.042,1.133-0.084,2.782,0.178,4.798     c0.377,4.039,1.614,9.598,4.113,15.293c4.935,11.515,12.535,18.567,12.873,18.122c0.418-0.349-6.288-7.775-11.051-18.913     C1169.57,1011.436,1169.381,1001.391,1168.707,1001.447z"/><linearGradient id="c" x1="459.052" x2="973.086" y1="1565.743" y2="817.04" gradientUnits="userSpaceOnUse"><stop offset="0" stop-color="#1c8ef4"/><stop offset="1" stop-color="#00cfdd"/></linearGradient><path fill="url(#c)" d="M777.827,958.003    c0,0,118.727,88.022,149.104,105.001c10.609,5.93-54.32,109.123-63.05,111.172c-8.73,2.05-85.964-47.481-103.133-68.666    c-17.169-21.186-31.624-77.938-31.347-92.371c0.195-10.178,1.301-49.986,15.398-65.85    C754.368,948.386,770.833,951.883,777.827,958.003z"/><path fill="#00CFDD" d="M806.26,1006.945c-9.099-27.442,93.344,55.461,88.817,67.345    C890.549,1086.175,814.183,1030.839,806.26,1006.945z" opacity=".5"/><path fill="#1C8EF4" d="M889.625,1140.959c-7.919,12.725-22.486,32.491-25.731,33.245    c-8.753,2.038-86.004-47.496-103.133-68.699c-17.205-21.203-31.617-77.947-31.39-92.359c0.302-13.658,46.252,37.253,64.134,34.611    C806.031,1099.369,850.455,1157.175,889.625,1140.959z" opacity=".5"/><g><path fill="#EDA49A" d="M1411.212,2353.554c0.071,4.006-7.464,64.957-7.325,81.924c-7.204,8.144-56.293,8.633-60.454,0.023      c-4.16-8.61-1.559-81.947-1.559-81.947H1411.212z"/><path fill="#0EAFE9" d="M1402.901,2508.302c-5.945,2.764-134.878,2.398-147.562,2.617c-12.685,0.219-8.602-45.497,30.556-47.099      l45.657-38.143c1.888-9.2,4.483-19.4,6.9-23.559c4.377-7.44,23.467-8.649,35.864-0.641c5.755,3.741,8.393,11.731,9.282,19.699      c12.506,0.053,21.878,1.349,22.807,8.243C1407.695,2438.956,1408.88,2505.533,1402.901,2508.302z"/><path fill="#123A76" d="M1324.5,2483.722c-1.091-4.435-20.506-23.463-40.384-19.548c0,0,8.703-13.291,27.983-3.001      C1326.33,2468.77,1324.5,2483.722,1324.5,2483.722z"/><path fill="#1C8EF4" d="M1380.499,2462.099c0.128,7.225,4.642,13.003,10.082,12.907      c5.44-0.096,9.746-6.031,9.618-13.255c-0.128-7.225-4.641-13.004-10.081-12.907      C1384.677,2448.94,1380.371,2454.875,1380.499,2462.099z" opacity=".5"/><path fill="#123A76" d="M1340.092,2456.216c-5.621-3.038-33.699-4.322-27.534-8.218c6.166-3.895,27.169,0.188,28.814,5.057       C1343.017,2457.924,1340.092,2456.216,1340.092,2456.216z"/><path fill="#123A76" d="M1348.604,2446.509c-5.62-3.039-33.699-4.323-27.533-8.217c6.165-3.895,27.168,0.186,28.813,5.055       C1351.529,2448.217,1348.604,2446.509,1348.604,2446.509z"/><path fill="#123A76" d="M1357.116,2436.802c-5.621-3.039-33.699-4.323-27.533-8.218c6.166-3.895,27.168,0.186,28.814,5.056       C1360.041,2438.51,1357.116,2436.802,1357.116,2436.802z"/><path fill="#123A76" d="M1406.1,2496.664c-0.002-0.096-56.825,3.631-88.627,4.021c-3.552,0.043-6.591-9.013-38.43-8.895      c-22.048-0.242-29.388,6.871-30.147,7.659c-1.422,1.472-3.961,15.238,2.292,16.227c6.252,0.99,149.437-0.2,151.811-2.689      C1407.699,2508.06,1406.1,2496.664,1406.1,2496.664z"/><linearGradient id="d" x1="1308.283" x2="1870.461" y1="1495.409" y2="3033.323" gradientUnits="userSpaceOnUse"><stop offset="0" stop-color="#235da3"/><stop offset="1" stop-color="#123a76"/></linearGradient><path fill="url(#d)" d="M1330.194,2380.864l89.976-0.449     l97.102-872.272l55.233-115.43c0,0-254.431-11.11-270.789,21.001C1285.358,1445.824,1330.194,2380.864,1330.194,2380.864z"/><g><path fill="#EDA49A" d="M1546.862,2353.554c-0.072,4.006,7.464,64.957,7.325,81.924c7.204,8.144,56.293,8.633,60.454,0.023      c4.16-8.61,1.559-81.947,1.559-81.947H1546.862z"/><path fill="#0EAFE9" d="M1555.173,2508.302c5.945,2.764,134.878,2.398,147.562,2.617s8.602-45.497-30.556-47.099l-45.657-38.143      c-1.888-9.2-4.483-19.4-6.9-23.559c-4.378-7.44-23.467-8.649-35.864-0.641c-5.755,3.741-8.392,11.731-9.282,19.699      c-12.506,0.053-21.878,1.349-22.807,8.243C1550.379,2438.956,1549.194,2505.533,1555.173,2508.302z"/><path fill="#123A76" d="M1633.574,2483.722c1.091-4.435,20.506-23.463,40.384-19.548c0,0-8.703-13.291-27.983-3.001      C1631.743,2468.77,1633.574,2483.722,1633.574,2483.722z"/><path fill="#1C8EF4" d="M1577.575,2462.099c-0.127,7.225-4.641,13.003-10.082,12.907      c-5.439-0.096-9.745-6.031-9.618-13.255c0.128-7.225,4.642-13.004,10.082-12.907      C1573.397,2448.94,1577.703,2454.875,1577.575,2462.099z" opacity=".5"/><path fill="#123A76" d="M1617.982,2456.216c5.621-3.038,33.699-4.322,27.534-8.218c-6.166-3.895-27.169,0.188-28.814,5.057       C1615.057,2457.924,1617.982,2456.216,1617.982,2456.216z"/><path fill="#123A76" d="M1609.47,2446.509c5.62-3.039,33.7-4.323,27.533-8.217c-6.165-3.895-27.169,0.186-28.813,5.055       C1606.545,2448.217,1609.47,2446.509,1609.47,2446.509z"/><path fill="#123A76" d="M1600.958,2436.802c5.621-3.039,33.699-4.323,27.533-8.218c-6.166-3.895-27.168,0.186-28.814,5.056       C1598.033,2438.51,1600.958,2436.802,1600.958,2436.802z"/><path fill="#123A76" d="M1551.974,2496.664c0.001-0.096,56.824,3.631,88.627,4.021c3.553,0.043,6.591-9.013,38.43-8.895      c22.048-0.242,29.388,6.871,30.147,7.659c1.422,1.472,3.961,15.238-2.292,16.227c-6.252,0.99-149.437-0.2-151.811-2.689      C1550.375,2508.06,1551.974,2496.664,1551.974,2496.664z"/><linearGradient id="e" x1="1429.896" x2="1991.862" y1="1439.514" y2="2976.846" gradientUnits="userSpaceOnUse"><stop offset="0" stop-color="#235da3"/><stop offset="1" stop-color="#123a76"/></linearGradient><path fill="url(#e)" d="M1627.879,2380.864l-89.975-0.449     l-97.102-872.272l-55.233-115.43c0,0,254.431-11.11,270.789,21.001C1672.716,1445.824,1627.879,2380.864,1627.879,2380.864z"/><path fill="#123A76" d="M1649.952,1864.126c-21.356-11.092-50.41-24.75-57.28-20.941c-11.174,6.208-33.524,43.457-45.774,16.554     c-12.333-26.902,13.492,46.767,20.859,62.908c7.284,16.142-45.858-38.49-54.135-23.59     c-7.284,13.078,40.063,390.284,51.652,481.502l-27.399-0.166l-58.853-528.767l-58.853,528.767l-20.528,0.083     c26.571-97.923,38.159-466.603,41.553-478.937c3.725-13.658-22.349-19.866-38.49-24.419     c-16.141-4.469,19.866-6.621,20.694-24.004c0.827-16.058-74.58-32.779-117.044-36.587     c-7.284-204.207-11.754-388.795-4.635-402.784c5.794-11.339,40.974-17.299,84.265-20.197l-0.414-0.827     c0,0,32.862-1.407,75.739-1.822h13.989c1.242,0,2.484-0.082,3.725-0.082c1.242,0,2.483,0.082,3.725,0.082h14.072     c42.795,0.415,75.656,1.822,75.656,1.822l-0.331,0.827c43.208,2.897,78.47,8.857,84.182,20.197     C1664.024,1428.812,1658.23,1641.792,1649.952,1864.126z"/></g><g><path fill="#EDA49A" d="M1596.611,1113.343l59.085-98.947l78.949,54.33l219.81-97.007l21.75,51.779      c0,0-160.092,144.906-263.861,145.927C1680.998,1169.733,1596.611,1113.343,1596.611,1113.343z"/><path fill="#D8776A" d="M1748.634,1166.69c-12.601,1.359-24.825,2.264-36.294,2.717      c-31.315,1.282-115.751-56.064-115.751-56.064l59.082-98.923l57.448,39.493c-1.056,16.752-4.629,60.487-13.231,75.05      C1699.889,1128.962,1715.961,1157.484,1748.634,1166.69z" opacity=".2"/><path fill="#D8776A" d="M1728.671,1110.451c-8.06-18.493,1.613-38.709,4.69-38.238      c3.077,0.47,12.024,15.568,8.236,14.547c-3.788-1.019-7.215-9.274-7.215-9.274S1731.371,1116.645,1728.671,1110.451z" opacity=".2"/><path fill="#EDA49A" d="M2006.305,913.45c4.2,1.397,5.301,5.235,3.324,10.106c-4.209,10.377-9.443,20.269-14.32,30.747       c20.692-7.587,43.127-15.319,63.819-22.905c1.505,2.437,0.697,5.405-0.676,7.32c-1.373,1.915-3.346,3.302-5.301,4.618       c-7.66,5.159-15.646,9.833-23.895,13.985c15.06-3.414,25.789-6.22,40.074-8.843c0.767,2.099,0.322,5.376-1.212,7       c-1.534,1.624-5.27,3.416-7.287,4.378c-9.162,4.368-16.654,7.94-25.817,12.307c10.604-1.66,21.867-2.268,32.471-3.929       c0.953,1.443,0.388,4.466-0.65,5.848c-1.039,1.383-2.548,2.362-4.122,3.078c-7.994,3.64-18.926,7.322-25.429,9.972       c7.222-0.408,14.749-0.077,21.97-0.484c1.283,6.688-7.486,6.413-12.505,8.667c-20.835,9.357-42.662,19.269-63.497,28.626       c0,0-15.748,7.022-28.061,11.316c-0.245-0.69-20.055-48.214-22.02-52.097c5.815-2.422,17.99-7.774,17.99-7.774       C1960.59,947.04,1976.236,944.481,2006.305,913.45z"/><path fill="#D8776A" d="M2023.24,959.15c0.173,0.521,2.728,0.14,5.706-0.85c2.978-0.99,5.253-2.215,5.079-2.735       c-0.173-0.521-2.728-0.14-5.706,0.85C2025.341,957.405,2023.066,958.63,2023.24,959.15z"/><path fill="#D8776A" d="M2027.446,974.805c0.173,0.521,2.728,0.14,5.706-0.849c2.978-0.991,5.253-2.215,5.079-2.736       c-0.173-0.521-2.728-0.14-5.706,0.85C2029.547,973.06,2027.272,974.284,2027.446,974.805z"/><path fill="#D8776A" d="M2030.153,989.763c0.173,0.52,2.728,0.14,5.706-0.851c2.978-0.99,5.253-2.215,5.08-2.735       c-0.173-0.521-2.728-0.14-5.706,0.85C2032.254,988.017,2029.979,989.242,2030.153,989.763z"/><path fill="#D8776A" d="M2021.126,992.623c0.518-0.181-1.289-6.691-4.034-14.54c-2.746-7.849-5.392-14.065-5.909-13.884       c-0.519,0.182,1.288,6.691,4.034,14.54C2017.962,986.588,2020.608,992.804,2021.126,992.623z"/><path fill="#D8776A" d="M1981.267,982.799c0.045,0.13,0.567,0.05,1.489-0.212c0.905-0.297,2.294-0.598,3.778-1.504       c3.084-1.485,7.023-4.818,9.167-9.795c2.218-4.934,2.188-9.913,1.855-13.281c-0.414-3.414-1.224-5.407-1.483-5.332       c-0.269,0.07,0.036,2.119,0.08,5.419c-0.029,3.263-0.241,7.909-2.271,12.394c-1.954,4.52-5.314,7.665-8.066,9.388       c-1.302,1.008-2.561,1.488-3.35,1.995C1981.657,982.343,1981.223,982.669,1981.267,982.799z"/><path fill="#D8776A" d="M1952.923,978.724c-0.137,0.004-0.226,0.626-0.269,1.76c-0.042,1.133-0.084,2.783,0.177,4.798       c0.377,4.039,1.615,9.598,4.113,15.293c4.935,11.515,12.535,18.568,12.873,18.122c0.418-0.349-6.288-7.775-11.051-18.913       C1953.786,988.714,1953.597,978.669,1952.923,978.724z"/><linearGradient id="f" x1="1761.773" x2="1458.817" y1="1501.622" y2="528.188" gradientUnits="userSpaceOnUse"><stop offset="0" stop-color="#1c8ef4"/><stop offset="1" stop-color="#00cfdd"/></linearGradient><path fill="url(#f)" d="M1562.043,935.281      c0,0,118.727,88.022,149.104,105.001c10.609,5.93-54.32,109.123-63.05,111.172s-85.964-47.481-103.133-68.666      c-17.169-21.186-31.624-77.937-31.347-92.371c0.195-10.178,1.301-49.986,15.398-65.85      C1538.583,925.664,1555.049,929.161,1562.043,935.281z"/><path fill="#00CFDD" d="M1590.476,984.223c-9.1-27.442,93.344,55.461,88.817,67.345      C1674.766,1063.453,1598.399,1008.117,1590.476,984.223z" opacity=".5"/><path fill="#1C8EF4" d="M1673.841,1118.236c-7.919,12.726-22.486,32.491-25.731,33.245      c-8.753,2.037-86.004-47.496-103.133-68.699c-17.204-21.203-31.616-77.947-31.39-92.359c0.302-13.658,25.996-5.045,43.88-7.686      C1569.992,1034.349,1634.671,1134.453,1673.841,1118.236z" opacity=".5"/><g><path fill="#EDA49A" d="M1338.17,1118.147l-59.084-98.947l-78.95,54.33l-219.81-97.007l-21.75,51.779      c0,0,160.091,144.906,263.861,145.926C1253.784,1174.539,1338.17,1118.147,1338.17,1118.147z"/><path fill="#D8776A" d="M1186.147,1171.495c12.601,1.358,24.825,2.264,36.295,2.716      c31.314,1.283,115.75-56.064,115.75-56.064l-59.083-98.923l-57.448,39.493c1.056,16.752,4.628,60.486,13.23,75.05      C1234.893,1133.768,1218.82,1162.29,1186.147,1171.495z" opacity=".2"/><path fill="#D8776A" d="M1206.11,1115.256c8.06-18.493-1.612-38.708-4.689-38.238      c-3.077,0.47-12.025,15.567-8.236,14.547c3.787-1.02,7.215-9.274,7.215-9.274S1203.411,1121.451,1206.11,1115.256z" opacity=".2"/><path fill="#EDA49A" d="M928.476,918.256c-4.2,1.397-5.301,5.235-3.325,10.106c4.21,10.377,9.443,20.269,14.32,30.746       c-20.693-7.586-43.127-15.318-63.819-22.905c-1.505,2.436-0.696,5.404,0.676,7.319c1.373,1.916,3.346,3.302,5.301,4.618       c7.66,5.159,15.647,9.833,23.896,13.986c-15.061-3.414-25.79-6.221-40.075-8.843c-0.766,2.099-0.322,5.376,1.212,7       c1.535,1.624,5.27,3.417,7.287,4.379c9.163,4.368,16.655,7.94,25.817,12.308c-10.604-1.661-21.867-2.269-32.471-3.929       c-0.953,1.443-0.388,4.466,0.65,5.849c1.039,1.383,2.549,2.362,4.122,3.078c7.994,3.64,18.927,7.322,25.429,9.972       c-7.221-0.407-14.749-0.077-21.969-0.484c-1.284,6.688,7.486,6.413,12.505,8.667c20.835,9.357,42.662,19.27,63.497,28.627       c0,0,15.748,7.022,28.062,11.316c0.245-0.69,20.055-48.214,22.019-52.097c-5.815-2.423-17.99-7.774-17.99-7.774       C974.191,951.846,958.545,949.286,928.476,918.256z"/><path fill="#D8776A" d="M911.542,963.956c-0.173,0.521-2.728,0.14-5.706-0.85s-5.253-2.215-5.08-2.736       c0.173-0.52,2.728-0.14,5.706,0.851C909.441,962.21,911.716,963.435,911.542,963.956z"/><path fill="#D8776A" d="M907.336,979.61c-0.173,0.521-2.728,0.14-5.706-0.85c-2.978-0.99-5.253-2.215-5.08-2.735       c0.173-0.521,2.728-0.14,5.706,0.85C905.234,977.865,907.509,979.09,907.336,979.61z"/><path fill="#D8776A" d="M904.628,994.568c-0.173,0.521-2.728,0.14-5.706-0.85c-2.978-0.99-5.253-2.215-5.08-2.736       c0.173-0.521,2.728-0.14,5.706,0.851C902.527,992.822,904.802,994.047,904.628,994.568z"/><path fill="#D8776A" d="M913.655,997.429c-0.518-0.181,1.289-6.691,4.035-14.54c2.746-7.849,5.392-14.065,5.91-13.884       c0.518,0.181-1.289,6.691-4.034,14.54C916.819,991.394,914.174,997.61,913.655,997.429z"/><path fill="#D8776A" d="M953.515,987.604c-0.045,0.13-0.567,0.049-1.489-0.212c-0.905-0.297-2.294-0.598-3.777-1.504       c-3.084-1.485-7.024-4.818-9.167-9.794c-2.219-4.934-2.188-9.913-1.855-13.281c0.414-3.414,1.224-5.407,1.483-5.332       c0.27,0.069-0.036,2.119-0.081,5.419c0.03,3.263,0.241,7.909,2.271,12.394c1.954,4.52,5.315,7.665,8.067,9.388       c1.301,1.008,2.561,1.489,3.35,1.994C953.125,987.148,953.559,987.475,953.515,987.604z"/><path fill="#D8776A" d="M981.858,983.53c0.138,0.003,0.227,0.626,0.269,1.76c0.042,1.133,0.084,2.782-0.177,4.798       c-0.377,4.039-1.615,9.598-4.113,15.293c-4.935,11.515-12.535,18.567-12.873,18.122c-0.418-0.349,6.289-7.775,11.051-18.913       C980.996,993.52,981.185,983.474,981.858,983.53z"/><linearGradient id="g" x1="1500.466" x2="1197.509" y1="1582.949" y2="609.513" gradientUnits="userSpaceOnUse"><stop offset="0" stop-color="#1c8ef4"/><stop offset="1" stop-color="#00cfdd"/></linearGradient><path fill="url(#g)" d="M1372.739,940.086      c0,0-118.728,88.022-149.105,105.001c-10.609,5.93,54.319,109.123,63.049,111.172c8.731,2.05,85.964-47.481,103.133-68.666      c17.169-21.186,31.624-77.938,31.347-92.371c-0.195-10.178-1.302-49.986-15.397-65.85      C1396.198,930.47,1379.733,933.967,1372.739,940.086z"/><path fill="#00CFDD" d="M1344.305,989.029c9.1-27.442-93.344,55.461-88.817,67.345      C1260.016,1068.258,1336.382,1012.922,1344.305,989.029z" opacity=".5"/><path fill="#1C8EF4" d="M1260.941,1123.042c7.918,12.725,22.486,32.491,25.731,33.245      c8.752,2.038,86.004-47.496,103.133-68.699c17.204-21.203,31.616-77.947,31.39-92.359c-0.302-13.658-25.996-5.045-43.88-7.687      C1364.789,1039.155,1300.11,1139.259,1260.941,1123.042z" opacity=".5"/></g><linearGradient id="h" x1="1532.127" x2="1229.171" y1="1573.095" y2="599.661" gradientUnits="userSpaceOnUse"><stop offset="0" stop-color="#1c8ef4"/><stop offset="1" stop-color="#00cfdd"/></linearGradient><path fill="url(#h)" d="M1271.045,1433.496     c6.399,11.151,348.762,18.468,397.547-3.166c48.785-21.633-119.196-499.7-137.821-505.929     c-18.624-6.229-101.356-15.649-141.937,11.411C1348.252,962.871,1255.705,1406.764,1271.045,1433.496z"/><path fill="#235DA3" d="M1350.446,1031.161c3.176-0.408-38.861,177.651-44.209,165.961     C1300.89,1185.432,1344.127,1031.971,1350.446,1031.161z"/><path fill="#235DA3" d="M1576.266,1027.688c-3.176-0.408,50.681,179.57,56.029,167.88     C1637.642,1183.879,1582.584,1028.499,1576.266,1027.688z"/><path fill="#00CFDD" d="M1372.594,1053.22c11.641,55.387-27.937,116.332-21.418,121.013     c6.519,4.681,35.387-17.669,33.524-10.219c-1.862,7.45-8.38,17.077-3.259,16.92c5.122-0.158,79.446-18.782,123.998-3.883     c44.552,14.9,80.87,13.822,64.574,3.884c-16.297-9.937-35.852-23.44-21.884-18.318c13.968,5.122,29.333,7.45,16.296-0.931     c-13.037-8.381-69.479-56.909-50.803-50.571c18.676,6.338,58.253,49.175,58.253,29.153s-25.143-130.836-31.661-112.212     c-6.518,18.624-45.711,58.317-78.03,38.936c-32.319-19.38-80.743-55.698-71.896-38.471c8.846,17.228,35.034,43.214,12.106,34.921     C1379.465,1055.15,1367.362,1028.326,1372.594,1053.22z" opacity=".5"/><g><path fill="#123A76" d="M1527.067,780.559c2.479-8.387-1.362-17.305-6.011-24.714c-4.649-7.408-10.323-14.543-12.045-23.118      c-1.423-7.088,0.027-14.393,0.276-21.619c0.248-7.225-1.086-15.199-6.598-19.877c-3.039-2.579-7.006-3.827-10.95-4.399      c-5.598-0.812-11.373-0.376-16.785,1.27c-5.747,1.746-11.661,4.87-17.427,3.189c-4.782-1.394-7.99-5.71-11.457-9.286      c-6.534-6.739-15.287-11.546-24.638-12.354c-9.352-0.807-19.209,2.705-25.179,9.948c-2.557,3.104-4.364,6.778-6.995,9.82      c-7.696,8.901-20.515,10.681-31.984,13.313c-11.469,2.632-24.25,8.411-26.838,19.891c-1.976,8.768,2.793,18.485-0.896,26.681      c-2.586,5.747-8.632,9.047-12.573,13.965c-5.408,6.748-6.189,17.222-0.857,24.031c6.161,7.868,18.36,9.502,23.567,18.031      c4.039,6.616,2.473,15.033,3.08,22.76c0.887,11.288,6.992,22.06,16.22,28.619l-2.738-2.755      c15.926,12.655,34.775,21.607,54.647,25.955c9.863,2.157,20.189,3.183,30.024,0.9c14.104-3.274,25.826-12.959,39.356-18.113      c10.292-3.922,22.786-6.103,28.157-15.719c6.883-12.324-2.837-28.419,2.115-41.638      C1514.048,795.976,1524.232,790.151,1527.067,780.559z"/><path fill="#EDA49A" d="M1496.239,917.193l-29.55-92.392l-39.572,50.066l7.556,42.955c-8.397,2.259-5.05,27.665,23.818,27.665      C1499.929,945.488,1500.321,917.423,1496.239,917.193z"/><path fill="#235DA3" d="M1433.89,913.283l-9.051,8.596c0,0,2.921,34.705,34.583,35.404      c31.661,0.698,43.172-37.972,43.172-37.972l-8.828-9.852c0,0-5.573,23.916-33.724,23.916      C1437.228,933.377,1433.89,913.283,1433.89,913.283z"/><path fill="#E38E82" d="M1434.753,918.256l-7.615-43.374l21.272-26.902l18.708,6.538      C1467.117,854.518,1475.312,905.591,1434.753,918.256z"/><path fill="#EDA49A" d="M1493.703,826.708c-2.801,10.973-13.728,3.949-13.728,3.949s0.856,14.863-0.938,18.139      c-8.212,14.995-32.705,55.572-81.878,50.824c-59.917-5.785-49.356-131.999-49.356-131.999c0-0.413,41.413,13.132,66.573,0      c20.018-10.469,32.86,27.403,53.338,2.862c0,0-7.118,28.46,3.521,31.593c2.928,0.862,8.373-8.884,8.373-8.884      c0.413-1.011,4.959-11.57,17.401-4.362C1510.048,796.452,1496.55,815.69,1493.703,826.708z"/><path fill="#123A76" d="M1485.21,800.227c0,0-2.374,7.129-1.25,10.378l7.123-2.249l-6.622,5.449l1.531,8.297      C1485.992,822.101,1473.589,810.592,1485.21,800.227z"/><path fill="#E38E82" d="M1449.858,834.884c0.635,4.205-4.008,8.392-10.369,9.352c-6.361,0.959-12.032-1.672-12.667-5.876       c-0.634-4.205,4.009-8.392,10.37-9.351C1443.553,828.048,1449.224,830.68,1449.858,834.884z"/><path fill="#E38E82" d="M1377.998,834.034c0.634,4.205-4.009,8.392-10.37,9.351c-6.361,0.96-12.032-1.671-12.666-5.876       c-0.635-4.205,4.008-8.391,10.369-9.351C1371.692,827.198,1377.364,829.829,1377.998,834.034z"/><path fill="#123A76" d="M1376.087,809.28c-0.095,5.523-3.237,9.948-7.016,9.883c-3.779-0.065-6.765-4.596-6.669-10.12       c0.095-5.524,3.237-9.948,7.016-9.883C1373.197,799.225,1376.183,803.756,1376.087,809.28z"/><path fill="#123A76" d="M1437.677,810.348c-0.096,5.523-3.237,9.949-7.017,9.883c-3.779-0.065-6.765-4.597-6.669-10.12       c0.095-5.524,3.237-9.949,7.016-9.883C1434.786,800.293,1437.772,804.824,1437.677,810.348z"/><path fill="#123A76" d="M1401.145,831.856c-0.651-0.735-1.773-0.802-2.503-0.148c-1.921,1.705-4.618,1.481-6.391,1.065       c5.998-10.448,3.568-25.309,2.585-25.188c-0.973,0.114-0.08,15.316-6.61,24.968c-0.222,0.328-0.288,0.703-0.272,1.069       c-0.079,0.738,0.289,1.473,1.003,1.799c0.173,0.077,2.69,1.201,5.713,1.201c2.067,0,4.372-0.524,6.328-2.265       C1401.731,833.708,1401.796,832.588,1401.145,831.856z"/><path fill="#123A76" d="M1422.327,851.073c0,0-0.333,7.09-2.834,14.337c-3.021,8.831-8.882,15.671-21.372,15.726        c-13.115,0.058-20.064-22.934-20.064-22.934C1402.888,863.879,1422.327,851.073,1422.327,851.073z"/><path fill="#FFF" d="M1387.544,872.345c2.818,3.239,6.429,5.734,11.28,6.524c9.94,1.655,15.185-6.896,17.931-15.062        C1407.045,860.416,1394.03,862.894,1387.544,872.345z"/><path fill="#123A76" d="M1352.59,793.302c0.781,2.067,11.267,0.536,16.451-1.423c5.183-1.96,11.058-2.987,10.277-5.055        c-0.781-2.067-7.924-4.39-13.106-2.431C1361.027,786.353,1351.809,791.235,1352.59,793.302z"/><g><path fill="#123A76" d="M1443.76,796.485c-0.781,2.066-11.223-0.735-16.406-2.694c-5.183-1.961-11.058-2.987-10.277-5.055        c0.781-2.067,7.924-4.39,13.106-2.431C1435.368,788.266,1444.541,794.417,1443.76,796.485z"/></g></g></g></g><g><polygon fill="#E38E82" points="692.383 2350.122 702.332 2446.207 750.675 2459.74 761.992 2344.474"/><path fill="#0EAFE9" d="M694.555,2417.505c-7.251-5.371-6.016,80.495,0,82.787c6.015,2.291,159.413,6.295,173.592-0.007       c14.18-6.303,15.039-34.86-8.594-39.702c-23.632-4.843-73.185-13.463-88.224-32.335c0,0-6.885-25.388-10.74-27.752       c-3.852-2.363-8.672,17.009-8.672,17.009S711.957,2430.396,694.555,2417.505z"/><path fill="#0EAFE9" d="M844.256,2457.564c0.335,0.934-1.472,2.223-3.268,4.686c-1.806,2.498-3.387,6.559-4.46,11.506        c-2.077,9.948-2.234,18.808-4.039,18.959c-1.611,0.237-4.45-8.796-2.106-20.311c1.201-5.689,4.033-10.848,7.473-13.313        C841.344,2456.643,844.081,2456.877,844.256,2457.564z"/><path fill="#123A76" d="M689.569,2486.254c-0.171,3.008-0.215,16.354,5.201,17.415c5.415,1.062,178.684,2.376,179.823,0       c1.139-2.376,1.513-11.208,2.082-12.898C877.245,2489.081,689.569,2486.254,689.569,2486.254z"/><path fill="#123A76" d="M783.284,2453.921c-4.139-4.685,5.049-15.577,7.735-14.825       C793.704,2439.85,787.366,2458.54,783.284,2453.921z"/><path fill="#123A76" d="M798.217,2458.755c-4.139-4.684,5.048-15.576,7.734-14.824       C808.637,2444.682,802.299,2463.375,798.217,2458.755z"/><path fill="#123A76" d="M813.772,2462.622c-4.139-4.684,5.049-15.575,7.734-14.824       C824.192,2448.55,817.854,2467.241,813.772,2462.622z"/><linearGradient id="i" x1="1907.853" x2="2192.981" y1="1877.172" y2="1877.172" gradientTransform="matrix(-1 0 0 1 2753.614 0)" gradientUnits="userSpaceOnUse"><stop offset="0" stop-color="#235da3"/><stop offset="1" stop-color="#123a76"/></linearGradient><path fill="url(#i)" d="M845.761,1399.519L777.132,2377.4h-96.535     l-75.999-690.294c0,0-54.473-263.484-42.149-297.295C574.772,1355.998,845.761,1399.519,845.761,1399.519z"/><path fill="#123A76" d="M604.604,1687.127l76.026,690.246h28.233c-34.854-91.399-35.616-363.616-21.688-400.677     c16.133-42.617,37.061-36.073,71.155-63.013c34.094-26.941-49.542,18.416-59.512,0c-9.969-18.417,95.116-40.504,115.512-66.302     c20.395-25.799-114.825,17.535-125.251,2.01c-10.426-15.525,76.253-266.601,90.028-293.997     c8.143-16.21,36.3-25.799,57.914-30.974l8.752-124.883c0,0-271-43.531-283.328-9.742     C550.115,1423.586,604.604,1687.127,604.604,1687.127z"/><polygon fill="#E38E82" points="459.267 2331.876 450.039 2428.807 496.874 2453.824 531.787 2343.173"/><path fill="#0EAFE9" d="M447.548,2399.69c-6.203-6.552-19.955,78.214-14.431,81.519c5.524,3.305,155.876,33.988,170.936,30.254       c15.061-3.734,20.886-31.704-1.541-40.592c-22.426-8.888-69.717-26.015-81.237-47.22c0,0-2.355-26.2-5.737-29.199       c-3.382-2.998-11.504,15.237-11.504,15.237S462.436,2415.418,447.548,2399.69z"/><path fill="#0EAFE9" d="M587.975,2465.231c0.167,0.979-1.838,1.933-4.035,4.046c-2.214,2.145-4.478,5.868-6.398,10.552        c-3.779,9.433-5.478,18.13-7.282,17.964c-1.627-0.047-2.848-9.437,1.468-20.367c2.174-5.394,5.862-9.979,9.679-11.807        C585.268,2463.817,587.921,2464.525,587.975,2465.231z"/><path fill="#123A76" d="M430.654,2466.518c-0.692,2.932-3.062,16.066,2.086,18.055c5.147,1.989,175.535,33.487,177.07,31.346       c1.536-2.141,3.444-10.773,4.299-12.337C614.964,2502.016,430.654,2466.518,430.654,2466.518z"/><path fill="#123A76" d="M528.571,2451.016c-3.259-5.334,7.687-14.458,10.201-13.25       C541.284,2438.976,531.785,2456.276,528.571,2451.016z"/><path fill="#123A76" d="M542.432,2458.379c-3.259-5.334,7.687-14.458,10.2-13.249       C555.146,2446.338,545.646,2463.639,542.432,2458.379z"/><path fill="#123A76" d="M557.076,2464.899c-3.259-5.334,7.686-14.457,10.199-13.249       C569.789,2452.858,560.29,2470.158,557.076,2464.899z"/><path fill="#1C8EF4" d="M493.979,2450.456c-1.427,8.062-9.12,13.441-17.181,12.014       c-8.062-1.427-13.44-9.12-12.013-17.182c1.427-8.06,9.12-13.44,17.181-12.013       C490.028,2434.702,495.407,2442.395,493.979,2450.456z" opacity=".5"/><path fill="#235DA3" d="M776.563,1407.976l-241.074,979.57l-92.929-13.227l44.163-715.725c0,0-5.776-277.132,12.509-309.364     C517.518,1316.999,776.563,1407.976,776.563,1407.976z"/><path fill="#1B4C8D" d="M462.369,2377.145c-1.37-79.375,38.584-402.96,47.716-418.257     c10.122-17.123,132.845-52.255,147.685-79.651c14.839-27.397-112.172-32.115-131.655-41.019     c-19.558-8.904-14.812-144.165-16.03-147.589c-1.293-3.425,38.889-160.956,38.889-160.956s157.531-9.132,168.794-4.566     c6.621,2.74,12.404,32.724,16.057,56.696l42.769-173.817c0,0-259.051-91.019-277.392-58.751     c-18.264,32.191-12.481,309.354-12.481,309.354l-44.139,715.739L462.369,2377.145z"/><linearGradient id="j" x1="476.565" x2="990.597" y1="1577.766" y2="829.067" gradientUnits="userSpaceOnUse"><stop offset="0" stop-color="#1c8ef4"/><stop offset="1" stop-color="#00cfdd"/></linearGradient><path fill="url(#j)" d="M619.164,947.198     c5.085-6.693,52.652-34.744,56.259-35.994c35.41-12.273,84.006,26.957,94.158,40.068     c10.152,13.11,101.322,475.013,93.941,485.964c-7.382,10.95-127.375,38.413-170.747,36.01s-219.302-40.292-221.395-45.452     C460.345,1400.588,561.086,1023.635,619.164,947.198z"/><path fill="#00CFDD" d="M693.508,1117.97c-4.919,17.774-34.461,67.184-22.239,78.964     c12.222,11.78,77.62,41.204,92.414,53.963c14.793,12.758,11.511-15.643,20.602-4.934c9.09,10.709,16.54,23.746,18.868,19.09     c2.328-4.656-52.295-82.225-32.666-68.118c19.629,14.107,37.904,35.991,39.01,32.732c1.106-3.259-12.48-118.355-19.655-115.283     c-7.176,3.071-31.675,25.013-42.705,14.042C736.105,1117.453,702.128,1086.825,693.508,1117.97z" opacity=".5"/><path fill="#00CFDD" d="M535.427,1303.681c20.521,10.633,121.219,18.998,135.107,35.271     c13.889,16.273,16.911,86.425,11.365,96.979c-5.547,10.554-50.373-44.698-47.826-33.524     c2.547,11.175,20.182,36.219,12.296,34.871c-7.886-1.348-22.298-22.455-19.127-10.66c3.17,11.796,14.839,21.729,6.831,20.487     c-8.007-1.241-136.595-26.074-138.417-36.007C493.832,1401.165,517.423,1294.352,535.427,1303.681z" opacity=".5"/><path fill="#235DA3" d="M596.422,1104.882c0,0-51.29,329.316-46.379,338.227C554.953,1452.019,605.184,1124.781,596.422,1104.882     z"/><path fill="#235DA3" d="M789.416,1030.443c0,0,46.642,282.372,56.345,284.701C855.465,1317.473,796.329,1040.13,789.416,1030.443     z"/><g><path fill="#123A76" d="M673.736,822.975c0,0,16.563,8.083,7.335,32.266c-9.297,24.362,63.946,45.647,78.927,27.046      c14.981-18.6,4.382-58.832,53.454-94.871c49.072-36.039,49.799-72.582,42.219-91.413c-7.58-18.831-26.091-7.65-26.091-7.65      s5.99-31.476-18.308-34.296c-24.298-2.82-23.904,22.485-23.904,22.485s-28.979-38.539-65.719-27.272      c-36.74,11.267-40.039,57.42-40.039,57.42S586.225,720.02,673.736,822.975z"/><path fill="#E38E82" d="M680.767,906.5c7.049-22.215,18.774-67.977,24.233-84.845c1.624-5.017,52.393,41.007,52.393,41.007      s5.861,49.569,1.219,74.393C765.701,948.051,674.547,926.101,680.767,906.5z"/><path fill="#D8776A" d="M760.232,903.809c-0.457-21.081-2.816-41.171-2.816-41.171s-25.19-22.831-40.638-34.474      c-0.685,2.207-1.218,4.566-1.598,7.153C707.95,886.001,751.176,901.221,760.232,903.809z"/><path fill="#1C8EF4" d="M770.943,954.942c0,0,5.331,10.595-2.086,13.592      c-7.416,2.997-94.264-28.484-93.434-54.695C675.423,913.839,755.617,932.789,770.943,954.942z" opacity=".5"/><path fill="#235DA3" d="M671.102,911.041l11.595-22.777c0,0,41.41,33.384,80.985,36.137c5.604,0.389,14.17,28.388,7.26,30.541      C764.033,957.094,673.853,920.35,671.102,911.041z"/><path fill="#E38E82" d="M795.887,878.901c-58.369,30.403-89.089-52.083-91.394-52.214c-2.305-0.13-4.542,0.776-6.843,0.956      c-8.927,0.699-12.792-14.231-14.154-23.08c-4.38-28.464,16.277-20.815,19.385-14.384c3.391,0.073-12.903-53.108,54.806-63.342      c33.306,0.103,42.286,17.3,50.156,34.219c13.068,28.091,17.216,68.723,5.665,97.47      C809.867,867.592,804.629,874.348,795.887,878.901z"/><path fill="#123A76" d="M758.111,830.593c0,0,0.333,7.09,2.834,14.336c3.021,8.832,8.882,15.672,21.372,15.727       c13.115,0.058,20.064-22.934,20.064-22.934C777.549,843.399,758.111,830.593,758.111,830.593z"/><path fill="#FFF" d="M792.893,851.865c-2.817,3.239-6.429,5.734-11.28,6.525c-9.941,1.655-15.185-6.896-17.931-15.062       C773.392,839.937,786.406,842.413,792.893,851.865z"/><path fill="#123A76" d="M694.518,791.501l0.769,8.632l-6.106-1.446l5.12,4.611c1.526,3.467,0.094,7.931,0.094,7.931      C700.537,805.851,697.089,795.138,694.518,791.501z"/><path fill="#123A76" d="M816.16,751.259c0,0-14.139,15.741-30.039,3.75c-15.9-11.991-34.705-31.491-43.792-8.319      c-3.525,8.99-26.765,3.357-24.453,21.08c2.128,16.316-12.093,28.974-18.765,18.641c-10.049-15.565-7.55-47.345,28.312-62.345      S813.132,729.394,816.16,751.259z"/><path fill="#123A76" d="M735.564,773.175c1.479,2.417,10.206-0.231,16.27-3.943c6.063-3.714,7.168-7.085,5.688-9.504        c-1.482-2.418-4.987-2.966-11.05,0.747C740.408,764.189,734.083,770.756,735.564,773.175z"/><path fill="#123A76" d="M804.565,772.403c-1.301,2.518-10.196,0.506-16.512-2.758c-6.315-3.267-7.661-6.549-6.359-9.069        c1.303-2.518,4.76-3.318,11.075-0.052C799.085,763.789,805.868,769.883,804.565,772.403z"/><path fill="#D8776A" d="M743.138,802.38c-0.32,3.139,3.622,6.107,8.802,6.634        c5.179,0.527,9.637-1.59,9.955-4.728c0.317-3.137-3.623-6.107-8.803-6.632C747.915,797.128,743.458,799.244,743.138,802.38z" opacity=".5"/><path fill="#D8776A" d="M793.003,803.841c-0.319,3.139,3.623,6.107,8.802,6.634        c5.18,0.526,9.637-1.591,9.955-4.728c0.318-3.137-3.622-6.107-8.802-6.632C797.78,798.589,793.323,800.705,793.003,803.841z" opacity=".5"/><path fill="#123A76" d="M777.17,820.656c0.317,0.075,0.653,0.095,0.995,0.053c4.515-0.574,6.276-2.717,6.959-4.415      c1.267-3.152-0.067-7.094-4.077-12.052c-4.896-6.053-4.928-16.749-6.425-16.939c-1.526-0.193-4.352,12.493,2.083,20.448      c3.084,3.812,3.466,5.892,3.237,6.46c-0.1,0.253-0.737,0.737-2.479,0.958c-1.53,0.195-2.613,1.591-2.419,3.121      C775.196,819.477,776.071,820.396,777.17,820.656z"/><path fill="#123A76" d="M793.195,793.32c0.625,4.865,3.888,8.456,7.288,8.019c3.4-0.437,5.65-4.735,5.025-9.601      c-0.625-4.865-3.888-8.456-7.288-8.019S792.57,788.454,793.195,793.32z"/><path fill="#123A76" d="M746.36,791.375c0.625,4.866,3.888,8.456,7.288,8.02s5.649-4.736,5.024-9.601      c-0.625-4.866-3.888-8.456-7.288-8.02C747.985,782.211,745.735,786.51,746.36,791.375z"/></g><path fill="#123A76" d="M2558.739,872.324c-53.376-33.866-113.606-24.966-146.974-62.497    c-14.484-16.294-22.701-50.488-40.83-77.284c6.733,8.536,12.274,17.963,17.172,27.736c5.686,11.345,10.898,23.095,18.108,33.99    c3.641,5.397,7.752,10.626,12.788,14.978c5.084,4.411,10.591,7.754,16.181,11.064c11.282,6.493,23.588,10.94,35.888,14.584    c12.352,3.572,24.753,6.687,37.225,9.447c12.33,2.766,24.3,7.027,35.669,12.603c11.313,5.636,22.13,12.586,31.222,21.563    c-8.293-9.785-18.987-17.283-30.083-23.73c-11.317-6.133-23.413-10.886-35.89-14.173c-24.54-6.702-49.777-12.082-71.578-24.632    c-5.42-3.104-10.916-6.385-15.519-10.303c-4.685-3.952-8.607-8.804-12.147-13.931c-7.027-10.345-12.295-22.004-18.54-33.203    c-6.154-11.234-13.075-22.301-21.997-31.673c-7.837-8.187-17.082-14.901-27.104-19.962c-1.306-0.668-2.57-1.373-3.934-1.988    c-0.088-0.038-0.167-0.091-0.256-0.135c0.043,0.029,0.088,0.056,0.131,0.086c-32.659-14.713-80.119-13.572-108.722,25.519    c-16.254,22.219-27.698,47.501-33.855,74.376c0.123-0.582,0.2-1.171,0.327-1.751c-10.668,39.754-10.943,82.629,0.519,122.594    c11.296,40.101,35.143,76.002,65.222,104.491c30.133,28.44,66.419,50.849,106.173,62.94c39.639,11.9,82.294,15.006,122.581,6.053    c-20.271,3.61-40.971,3.989-61.365,2.242c-20.421-1.643-40.607-5.737-60.011-12.105c-19.392-6.379-38.133-14.803-55.506-25.504    c-17.486-10.52-33.516-23.374-48.449-37.244c-14.94-13.889-28.195-29.59-39.257-46.697c-11.059-17.12-19.687-35.782-25.77-55.252    c-7.744-25.227-10.777-51.796-9.652-78.277c-1.441,60.972,23.49,126.098,80.559,180.698    c87.87,84.075,232.373,88.132,292.149,32.319C2626.638,1000.037,2614.008,907.391,2558.739,872.324z"/><g><path fill="#EDA49A" d="M2255.321,2353.554c0.072,4.006-7.464,64.957-7.325,81.924c-7.204,8.144-56.293,8.633-60.454,0.023      c-4.16-8.61-1.559-81.947-1.559-81.947H2255.321z"/><path fill="#0EAFE9" d="M2247.009,2508.302c-5.945,2.764-134.878,2.398-147.561,2.617c-12.685,0.219-8.602-45.497,30.555-47.099      l45.657-38.143c1.888-9.2,4.483-19.4,6.9-23.559c4.377-7.44,23.467-8.649,35.864-0.641c5.755,3.741,8.392,11.731,9.282,19.699      c12.506,0.053,21.878,1.349,22.807,8.243C2251.804,2438.956,2252.989,2505.533,2247.009,2508.302z"/><path fill="#123A76" d="M2168.609,2483.722c-1.091-4.435-20.506-23.463-40.384-19.548c0,0,8.703-13.291,27.983-3.001      C2170.44,2468.77,2168.609,2483.722,2168.609,2483.722z"/><path fill="#1C8EF4" d="M2224.608,2462.099c0.128,7.225,4.641,13.003,10.082,12.907      c5.439-0.096,9.746-6.031,9.618-13.255c-0.128-7.225-4.642-13.004-10.082-12.907      C2228.786,2448.94,2224.48,2454.875,2224.608,2462.099z" opacity=".5"/><path fill="#123A76" d="M2184.201,2456.216c-5.621-3.038-33.699-4.322-27.534-8.218c6.166-3.895,27.168,0.188,28.814,5.057       C2187.126,2457.924,2184.201,2456.216,2184.201,2456.216z"/><path fill="#123A76" d="M2192.713,2446.509c-5.62-3.039-33.699-4.323-27.533-8.217c6.165-3.895,27.168,0.186,28.812,5.055       C2195.638,2448.217,2192.713,2446.509,2192.713,2446.509z"/><path fill="#123A76" d="M2201.225,2436.802c-5.621-3.039-33.699-4.323-27.533-8.218c6.166-3.895,27.168,0.186,28.814,5.056       C2204.15,2438.51,2201.225,2436.802,2201.225,2436.802z"/><path fill="#123A76" d="M2250.209,2496.664c-0.001-0.096-56.824,3.631-88.627,4.021c-3.553,0.043-6.591-9.013-38.43-8.895      c-22.048-0.242-29.388,6.871-30.147,7.659c-1.422,1.472-3.961,15.238,2.292,16.227c6.252,0.99,149.437-0.2,151.811-2.689      C2251.808,2508.06,2250.209,2496.664,2250.209,2496.664z"/><linearGradient id="k" x1="2152.392" x2="2714.57" y1="1495.409" y2="3033.323" gradientUnits="userSpaceOnUse"><stop offset="0" stop-color="#235da3"/><stop offset="1" stop-color="#123a76"/></linearGradient><path fill="url(#k)" d="M2174.304,2380.864l89.975-0.449     l97.103-872.272l55.233-115.43c0,0-254.431-11.11-270.789,21.001C2129.467,1445.824,2174.304,2380.864,2174.304,2380.864z"/></g><g><path fill="#EDA49A" d="M2390.971,2353.554c-0.071,4.006,7.464,64.957,7.325,81.924c7.204,8.144,56.293,8.633,60.455,0.023      c4.16-8.61,1.559-81.947,1.559-81.947H2390.971z"/><path fill="#0EAFE9" d="M2399.282,2508.302c5.945,2.764,134.878,2.398,147.562,2.617c12.685,0.219,8.602-45.497-30.556-47.099      l-45.657-38.143c-1.888-9.2-4.483-19.4-6.9-23.559c-4.378-7.44-23.467-8.649-35.864-0.641      c-5.755,3.741-8.392,11.731-9.282,19.699c-12.506,0.053-21.878,1.349-22.807,8.243      C2394.488,2438.956,2393.303,2505.533,2399.282,2508.302z"/><path fill="#123A76" d="M2477.683,2483.722c1.091-4.435,20.506-23.463,40.384-19.548c0,0-8.703-13.291-27.983-3.001      C2475.853,2468.77,2477.683,2483.722,2477.683,2483.722z"/><path fill="#1C8EF4" d="M2421.684,2462.099c-0.128,7.225-4.641,13.003-10.082,12.907      c-5.439-0.096-9.746-6.031-9.618-13.255c0.128-7.225,4.641-13.004,10.081-12.907      C2417.506,2448.94,2421.812,2454.875,2421.684,2462.099z" opacity=".5"/><path fill="#123A76" d="M2462.091,2456.216c5.621-3.038,33.699-4.322,27.534-8.218c-6.166-3.895-27.168,0.188-28.814,5.057       C2459.166,2457.924,2462.091,2456.216,2462.091,2456.216z"/><path fill="#123A76" d="M2453.58,2446.509c5.62-3.039,33.699-4.323,27.533-8.217c-6.165-3.895-27.168,0.186-28.813,5.055       C2450.654,2448.217,2453.58,2446.509,2453.58,2446.509z"/><path fill="#123A76" d="M2445.067,2436.802c5.621-3.039,33.699-4.323,27.533-8.218c-6.166-3.895-27.168,0.186-28.814,5.056       C2442.142,2438.51,2445.067,2436.802,2445.067,2436.802z"/><path fill="#123A76" d="M2396.083,2496.664c0.002-0.096,56.825,3.631,88.627,4.021c3.552,0.043,6.591-9.013,38.43-8.895      c22.048-0.242,29.388,6.871,30.147,7.659c1.422,1.472,3.961,15.238-2.292,16.227c-6.252,0.99-149.437-0.2-151.811-2.689      C2394.484,2508.06,2396.083,2496.664,2396.083,2496.664z"/><linearGradient id="l" x1="2274.005" x2="2835.971" y1="1439.514" y2="2976.846" gradientUnits="userSpaceOnUse"><stop offset="0" stop-color="#235da3"/><stop offset="1" stop-color="#123a76"/></linearGradient><path fill="url(#l)" d="M2471.989,2380.864l-89.976-0.449     l-97.102-872.272l-55.233-115.43c0,0,254.431-11.11,270.789,21.001C2516.825,1445.824,2471.989,2380.864,2471.989,2380.864z"/><path fill="#123A76" d="M2443.269,1503.972c-0.497,14.816,34.103,121.348,56.701,188.809     c-1.241,40.726-2.649,83.934-4.221,127.887c-44.947-4.8-138.566-6.208-137.076,5.049c1.904,14.32,59.35,16.224,37.167,27.399     c-22.184,11.174-26.074-3.725-37.167,14.9c-9.85,16.555,42.463,423.477,54.052,512.543l-30.709-0.166l-58.853-528.767     l-58.853,528.767l-41.884,0.249c18.044-95.357,89.314-481.668,72.925-486.553c-18.542-5.545-62.827,9.602-51.818-8.194     c10.927-17.879,44.864-27.151,25.992-38.407c-13.492-7.947-80.789-1.656-117.872,2.648     c-7.946-217.202-13.327-421.656-5.794-436.391c5.711-11.339,40.973-17.299,84.182-20.197l-0.331-0.827     c0,0,32.862-1.407,75.657-1.822h14.071c1.242,0,2.484-0.082,3.725-0.082c1.242,0,2.483,0.082,3.725,0.082h13.99     c42.877,0.415,75.739,1.822,75.739,1.822l-0.414,0.827c43.291,2.897,78.471,8.857,84.265,20.197     c1.987,3.891,3.146,21.274,3.477,48.673C2482.09,1470.697,2443.849,1488.327,2443.269,1503.972z"/></g><path fill="#EDA49A" d="M2522.377,1144.622c0,0,75.768,180.498,75.359,202.458c-0.409,21.96-12.342,46.649-37.678,45.768    c-25.336-0.882-58-11.463-58-11.463l-67.216-229.087L2522.377,1144.622z"/><linearGradient id="m" x1="2643.776" x2="2230.314" y1="1509.906" y2="608.486" gradientUnits="userSpaceOnUse"><stop offset="0" stop-color="#1c8ef4"/><stop offset="1" stop-color="#00cfdd"/></linearGradient><path fill="url(#m)" d="M2376.666,955.556    c0,0,50.922,13.164,56.213,18.895c5.29,5.732,71.179,130.576,104.201,170.171c15.686,18.808-95.989,52.013-103.679,39.776    C2425.71,1172.162,2376.666,955.556,2376.666,955.556z"/><path fill="#1C8EF4" d="M2416.506,978.687c17.658,1.849,49.739,68.179,41.612,77.583    S2406.358,977.625,2416.506,978.687z" opacity=".5"/><path fill="#123A76" d="M2050.292,1096.999c-0.805,9.906,9.231,39.807,39.651,63.966c30.42,24.158,67.507,24.147,67.507,24.147    s3.536-42.205-26.398-70.762C2101.118,1085.792,2063.358,1105.08,2050.292,1096.999z"/><path fill="#EDA49A" d="M2084.046,1099.547c0,0-116.868,92.404-113.609,97.991c3.259,5.587,5.801,7.157,32.341,16.92    c26.54,9.764,90.328,9.5,90.328,9.5l72.794-49.557C2165.901,1174.402,2163.188,1085.113,2084.046,1099.547z"/><linearGradient id="n" x1="2413.464" x2="2000.002" y1="1615.543" y2="714.123" gradientUnits="userSpaceOnUse"><stop offset="0" stop-color="#1c8ef4"/><stop offset="1" stop-color="#00cfdd"/></linearGradient><path fill="url(#n)" d="M2236.465,955.784    c0,0-19.042,6.767-21.369,7.698c-2.328,0.931-86.96,85.683-163.643,132.244c-12.923,7.846,85.886,27.926,105.997,89.387    c33.899-14.9,70.168-42.992,79.063-74.032C2245.409,1080.039,2236.465,955.784,2236.465,955.784z"/><path fill="#00CFDD" d="M2197.655,998.721c17.657,1.849-66.602,100.827-101.008,92.939    C2084.532,1088.883,2187.505,997.658,2197.655,998.721z" opacity=".5"/><path fill="#1C8EF4" d="M2239.559,1088.936c-0.579,9.272-1.572,16.97-3.062,22.102    c-8.857,31.04-45.113,59.184-79.05,74.084c-6.374-19.619-20.777-35.014-37.001-47.1    C2155.625,1139.347,2201.235,1130.656,2239.559,1088.936z" opacity=".5"/><linearGradient id="o" x1="2441.285" x2="2027.822" y1="1602.783" y2="701.36" gradientUnits="userSpaceOnUse"><stop offset="0" stop-color="#1c8ef4"/><stop offset="1" stop-color="#00cfdd"/></linearGradient><path fill="url(#o)" d="M2135.287,1441.925    c6.65,5.12,244.245,15.649,274.225,15.64c29.98-0.01,109.339-39.37,109.339-39.37s-107.927-406.242-142.184-462.796    c-22.926-6.695-132.558-2.611-140.2,0.385C2228.824,958.78,2107.07,1420.199,2135.287,1441.925z"/><path fill="#00CFDD" d="M2253.974,1056.973c71.957,37.056,91.127,4.085,101.439-2.378    c10.312-6.462,45.925,94.929,24.284,90.027c-21.641-4.902-24.813-38.741-51.249-21.293    c-26.436,17.448-101.515,29.186-107.86,12.478C2214.243,1119.1,2236.213,1047.827,2253.974,1056.973z" opacity=".5"/><path fill="#235DA3" d="M2206.182,1056.973c4.138,4.337-34.503,167.301-39.74,159.44    C2161.204,1208.552,2195.441,1070.455,2206.182,1056.973z"/><path fill="#235DA3" d="M2395.227,1076.252c0,0,32.754,100.203,41.972,105.824c9.218,5.621,47.468-4.492,46.824-4.322    c-0.644,0.171-44.121,23.43-54.113,16.226C2419.917,1186.777,2392.055,1089.32,2395.227,1076.252z"/><g><path fill="#EDA49A" d="M2248.622,954.14c0,0,17.239-3.098,24.302-4.233c0.638-1.64,8.306-64.263,8.306-64.263l46.754-15.999      c0,0,4.715,72.654,10.495,81.713c0.323,0.501,28.203,2.086,28.203,2.086c6.291,22.461-22.235,69.538-65.321,72.294      C2262.062,1019.58,2248.604,972.276,2248.622,954.14z"/><path fill="#D8776A" d="M2274.191,941.349c2.336-17.52,7.008-55.675,7.008-55.675l37.636-12.913      C2323.506,893.721,2325.842,932.848,2274.191,941.349z"/><path fill="#D8776A" d="M2301.376,1025.737c43.053-2.786,72.989-49.144,66.664-71.601      c0,0-2.611-0.234-6.325-0.523c-4.01,56.607-51.726,66.482-62.053,59.52c-9.17-6.266-50.52-30.826-43.432-60.332      c-4.295,0.757-7.604,1.335-7.604,1.335C2248.081,975.073,2264.703,1020.432,2301.376,1025.737z" opacity=".2"/><path fill="#EDA49A" d="M2237.106,918.099c63.032,32.832,96.207-56.244,98.695-56.386c2.489-0.14,4.905,0.838,7.39,1.032       c9.64,0.754,13.814-15.368,15.285-24.924c4.73-30.737-17.577-22.478-20.934-15.532c-3.66,0.078,13.934-57.35-59.183-68.402       c-35.968,0.11-45.665,18.682-54.163,36.952c-14.113,30.335-18.591,74.213-6.118,105.257       C2222.011,905.886,2227.667,913.182,2237.106,918.099z"/><path fill="#FEF0CA" d="M2338.781,862.084c0.277,1.834,1.991,3.097,3.821,2.819c1.84-0.278,3.102-1.991,2.824-3.826       c-0.281-1.831-1.991-3.093-3.826-2.82C2339.765,858.54,2338.503,860.249,2338.781,862.084z"/><path fill="#123A76" d="M2230.473,869.18c0,0,3.707,13.86,13.762,21.404c3.693,2.794,8.127,4.765,13.604,4.917        c11.237,0.359,15.414-8.589,16.922-16.853c1.259-6.785,0.608-13.14,0.608-13.14S2254.761,874.651,2230.473,869.18z"/><path fill="#FFF" d="M2247.251,889.089c2.94,2.507,6.488,4.245,10.911,4.301c9.07,0.145,12.595-8.166,13.948-15.802        C2263.015,875.866,2251.762,879.81,2247.251,889.089z"/><path fill="#123A76" d="M2346.573,823.716l-0.83,9.321l6.594-1.561l-5.529,4.979c-1.648,3.745-0.102,8.566-0.102,8.566       C2340.074,839.213,2343.798,827.645,2346.573,823.716z"/><path fill="#123A76" d="M2230.093,776.384c0,0,31.559,4.154,57.275-12.405c3.806,9.708,12.728,28.371,33.981,34.111       c-2.299,17.619,13.059,31.288,20.263,20.13c10.852-16.81,8.154-51.127-30.574-67.326       C2272.312,734.696,2233.362,752.773,2230.093,776.384z"/><path fill="#123A76" d="M2306.566,800.149c-1.597,2.61-11.021-0.25-17.57-4.259c-6.547-4.011-7.741-7.651-6.143-10.263         c1.6-2.611,5.386-3.203,11.933,0.807C2301.336,790.444,2308.165,797.536,2306.566,800.149z"/><path fill="#123A76" d="M2225.67,798.849c1.405,2.719,11.01,0.547,17.831-2.979c6.82-3.528,8.273-7.072,6.868-9.793         c-1.407-2.719-5.14-3.583-11.96-0.057C2231.587,789.548,2224.263,796.128,2225.67,798.849z"/><path fill="#D8776A" d="M2294.069,831.619c0.346,3.389-3.912,6.595-9.505,7.164         c-5.594,0.568-10.407-1.718-10.75-5.106c-0.343-3.388,3.911-6.595,9.506-7.162         C2288.911,825.948,2293.724,828.233,2294.069,831.619z" opacity=".5"/><path fill="#D8776A" d="M2240.22,833.197c0.345,3.389-3.911,6.595-9.505,7.164         c-5.594,0.568-10.407-1.718-10.75-5.105c-0.343-3.388,3.912-6.595,9.506-7.162         C2235.062,827.526,2239.876,829.811,2240.22,833.197z" opacity=".5"/><path fill="#123A76" d="M2256.338,851.355c-0.343,0.081-0.705,0.102-1.075,0.057c-4.875-0.619-6.777-2.934-7.514-4.767       c-1.368-3.403,0.073-7.661,4.403-13.015c5.286-6.536,5.321-18.087,6.938-18.292c1.647-0.209,2.082,13.274-4.867,21.865       c-3.33,4.117-1.126,6.58-0.879,7.193c0.108,0.272,0.797,0.795,2.677,1.034c1.652,0.211,2.821,1.719,2.612,3.37       C2258.471,850.082,2257.526,851.074,2256.338,851.355z"/><path fill="#123A76" d="M2240.014,821.834c-0.676,5.255-4.199,9.132-7.871,8.66c-3.672-0.472-6.102-5.113-5.427-10.368       c0.675-5.254,4.199-9.131,7.87-8.66C2238.259,811.938,2240.688,816.58,2240.014,821.834z"/><path fill="#123A76" d="M2290.59,819.735c-0.675,5.255-4.198,9.132-7.871,8.66c-3.671-0.472-6.101-5.113-5.426-10.368       c0.675-5.254,4.198-9.131,7.87-8.66C2288.835,809.839,2291.265,814.481,2290.59,819.735z"/><path fill="#FEF0CA" d="M2282.958,797.964c-12.487-0.042-22.856,11.348-23.265,25.408c-0.409,14.06,9.297,25.516,21.783,25.558     c12.427,0.042,22.797-11.348,23.206-25.408C2305.091,809.462,2295.386,798.005,2282.958,797.964z M2281.659,842.662     c-9.38-0.032-16.717-8.668-16.409-19.272c0.308-10.604,8.144-19.131,17.524-19.099c9.32,0.031,16.66,8.609,16.351,19.212     C2298.818,834.107,2290.98,842.692,2281.659,842.662z"/><path fill="#FEF0CA" d="M2235.146,793.398c-12.487-0.042-22.856,11.348-23.265,25.408c-0.409,14.06,9.297,25.516,21.783,25.558     c12.427,0.042,22.797-11.349,23.206-25.408C2257.279,804.896,2247.574,793.44,2235.146,793.398z M2233.847,838.096     c-9.38-0.031-16.717-8.668-16.409-19.271s8.144-19.131,17.525-19.099c9.32,0.031,16.659,8.609,16.351,19.212     S2243.168,838.127,2233.847,838.096z"/></g><path fill="#235DA3" d="M2250.61,951.628c0,0,10.517,70.072,59.124,67.312c12.154-0.69,42.698-0.407,52.282-67.312    c0,0,9.274,0.382,10.313,3.426c4.337,12.712-16.235,84.569-61.378,84.569s-76.574-46.689-70.242-85.598    C2240.708,954.025,2248.406,949.285,2250.61,951.628z"/><g><path fill="#FEF0CA" d="M689.08,1261.027c0,0,83.511,60.771,211.937,40.86c128.425-19.908,421.546-141.016,763-82.351     c71.274,12.249,435.106,53.602,630.205,30.667c58.643-6.894,92.021-49.411,116.552-58.056c0,0-2.16,495.686,97.265,585.438     c0,0-163.181,3.138-469.484,51.785c-306.304,48.647-536.047-69.102-797.023-66.258     c-260.977,2.846-682.111,209.531-738.693,73.857c0,0,204.977-246.141,216.235-475.203     C720.607,1330.605,694.701,1290.497,689.08,1261.027z"/><path fill="#FABD23" d="M1253.384,1509.93c232.207,181.05,600.399,272.853,509.456,231.002     c-90.943-41.852-204.797-116.11-148.545-99.232c56.252,16.878,199.912,49.279,129.432,14.178     c-70.48-35.101-175.265-105.825-119.498-85.313c55.767,20.511,505.331,154.166,452.68,125.815     c-52.651-28.351-288.909-98.553-253.808-103.953c35.101-5.4,99.956,25.894,98.553-12.248     c-3.276-89.073-508.426-329.618-446.595-287.614c61.832,42.003,159.035,104.21,109.083,104.158s-146.996-44.557-118.725-18.93     c28.272,25.628,109.274,64.555,40.422,56.566c-68.852-7.988-391.895-142.297-308.001-93.368     c83.894,48.929,171.148,96.933,143.047,100.607c-28.101,3.673-105.989-25.342-76.309-1.493s72.203,23.753,62.905,42.136     C1318.186,1500.625,1201.907,1469.794,1253.384,1509.93z" opacity=".2"/><path fill="#FABD23" d="M2035.749,1252.072c0,0-9.381,36.887,47.106,35.845     c56.486-1.041,94.594-26.356,107.309-11.566s34.827,32.052,54.76,36.082c19.933,4.031,57.572-2.764,58.021-12.181     c0.448-9.418-26.471-48.181-26.471-48.181S2085.857,1265.6,2035.749,1252.072z" opacity=".2"/><path fill="#FABD23" d="M2349.177,1264.795c1.853,12.504,5.529,24.839,11.773,35.47     c4.8,8.173,13.363,12.904,20.672,17.897c13.071,8.921,28.662,22.117,24.228,41.877c-1.812,8.071-7.336,13.817-12.783,19.116     c-3.348,3.262-6.958,6.404-9.758,10.286c-3.357,4.666-5.78,10.62-7.908,16.092c-8.65,22.243-6.094,44.705,0.254,67.057     c8.669,30.515,23.369,62.959,15.543,95.962c-5.094,21.485-19.987,35.802-37.727,44.636     c-42.742,21.287-91.74,19.162-134.663,40.24c-10.184,5.001-19.812,11.404-27.966,19.92c-13.366,13.96-22.233,32.23-29.29,50.773     c-11.454,30.112-18.839,63.084-33.418,91.702c248.377-35.688,379.902-38.238,379.902-38.238     c-99.425-89.752-97.265-585.438-97.265-585.438c-15.853,5.586-35.453,25.288-63.125,40.413     C2347.292,1243.344,2347.599,1254.15,2349.177,1264.795z" opacity=".2"/><path fill="#FABD23" d="M1268.537,1728.854c-14.089-14.459-28.569-27.008-47.262-33.179     c-28.977-9.565-60.819-9.036-90.534-3.982c-31.72,5.398-62.013,17.105-91.97,29.718c-28.328,11.929-56.244,24.028-86.119,30.093     c-45.416,9.217-96.023,7.784-136.304-19.206c-38.468-25.772-56.089-72.423-55.413-121.365c0.218-15.734,2.79-31.045,4.283-46.655     c1.406-14.698,1.866-29.493,0.887-44.215c-1.618-24.371,77.559-23.082,67.157-44.566     c-19.484-40.244,107.471-59.843,67.675-68.097c-95.677-19.846-164.97-81.955-181.896-103.72     c31.951,242.254-216.204,533.289-216.204,533.289c56.581,135.674,477.716-71.011,738.693-73.857     c21.563-0.233,42.899,0.419,64.099,1.672C1292.649,1753.766,1280.671,1741.306,1268.537,1728.854z" opacity=".2"/><g opacity=".5"><path fill="#FABD23" d="M784.285,1325.162c0,0,56.012,59.989,146.419,29.36C930.703,1354.523,846.093,1416.938,784.285,1325.162      z"/><path fill="#FABD23" d="M823.402,1331.357c30.549,29.445,81.578,12.919,78.102,3.716      C898.029,1325.869,816.987,1325.173,823.402,1331.357z" opacity=".5"/><path fill="#FABD23" d="M765.443,1358.258c12.445,10.219,71.84,76.112,52.866,71.877      C799.335,1425.899,754.671,1349.413,765.443,1358.258z" opacity=".5"/><path fill="#FABD23" d="M749.086,1382.24c0,0-49.769,284.231-121.845,424.68C627.241,1806.92,762.076,1641.523,749.086,1382.24z      "/><path fill="#FABD23" d="M816.552,1698.147c0,0,159.683,43.773,249.119-11.631c89.437-55.408,167.067-11.012,167.067-11.012      s-72.623-58.378-171.35-1.184C962.663,1731.517,816.552,1698.147,816.552,1698.147z"/><path fill="#FABD23" d="M2372.098,1661.3c0,0-106.108-7.059-185.347,112.322      C2186.751,1773.622,2228.726,1638.969,2372.098,1661.3z"/><path fill="#FABD23" d="M2243.564,1323.982c0,0,90.83-21.997,142.363-80.861      C2385.927,1243.121,2345.341,1320.183,2243.564,1323.982z"/><path fill="#FABD23" d="M2394.594,1259.411c0,0-37.501,131.125-1.861,231.739      C2392.733,1491.15,2333.181,1368.835,2394.594,1259.411z"/><path fill="#FABD23" d="M2204.894,1349.158c0,0,34.422,33.218,129.339-34.536      C2334.233,1314.622,2245.06,1423.204,2204.894,1349.158z"/></g><g opacity=".5"><path fill="#FABD23" d="M979.288,1443.715c-3.399,16.273-5.789,31.488-7.157,45.61c-1.372,14.205-2.223,27.839-2.547,40.894      c4.939-10.807,9.805-21.912,14.586-33.317c4.762-11.351,9.447-23.08,14.055-35.175c4.342,11.129,8.718,21.434,13.127,30.912      c4.427,9.518,9.293,18.518,14.586,26.991l0.158-11.612c0.176-13.057-0.3-25.689-1.431-37.893      c-1.128-12.141-3.122-23.405-5.99-33.802c0.35,0.164,1.416,0.215,3.195,0.157c1.773-0.056,4.112-0.286,7.005-0.687      c2.892-0.401,6.255-0.932,10.087-1.597c3.83-0.662,8.022-1.536,12.569-2.614c6.954-1.648,14.466-3.793,22.536-6.439      c8.07-2.644,16.162-5.864,24.27-9.653c-1.96,4.037-3.83,9.305-5.617,15.804c-1.79,6.514-3.477,13.859-5.052,22.045      c-1.585,8.208-3.013,17.109-4.294,26.711c-1.29,9.641-2.399,19.59-3.332,29.844c-0.94,10.3-1.677,20.697-2.208,31.191      c-0.539,10.544-0.824,20.808-0.858,30.799c-0.021,6.391,0.073,12.537,0.283,18.423c0.21,5.907,0.534,11.561,0.983,16.957      c-9.237,0.701-17.454,1.624-24.657,2.762c-7.2,1.143-13.528,2.358-18.976,3.651c-3.51,0.831-6.606,1.655-9.283,2.464      c-2.685,0.81-4.948,1.518-6.799,2.136c-2.132,0.766-3.98,1.464-5.555,2.102c-0.986-7.529-2.015-14.85-3.09-21.963      c-1.071-7.094-2.334-13.796-3.775-20.12c-1.442-6.304-3.117-12.151-5.018-17.544c-1.897-5.383-4.209-10.167-6.939-14.35      c-2.204,6.033-4.117,12.18-5.746,18.44c-1.631,6.277-3.02,12.855-4.173,19.731c-1.152,6.898-2.039,14.139-2.662,21.724      c-0.628,7.608-1.032,15.664-1.22,24.174c-9.211,0.696-17.481,1.631-24.81,2.803c-7.326,1.169-13.622,2.38-18.887,3.627      c-3.602,0.853-6.746,1.689-9.43,2.498c-2.684,0.812-4.956,1.525-6.809,2.139c-2.134,0.766-3.9,1.45-5.294,2.039      c0.893-9.886,1.52-20.151,1.887-30.792c0.343-9.901,0.46-19.885,0.352-29.944c-0.108-10.02-0.442-19.844-1.007-29.463      c-0.563-9.59-1.337-18.858-2.32-27.813c-0.976-8.92-2.15-17.203-3.52-24.852c-1.368-7.626-2.977-14.517-4.83-20.668      c-1.848-6.137-3.882-11.3-6.108-15.488c2.557,0.046,5.572-0.142,9.032-0.555c2.926-0.286,6.461-0.783,10.595-1.476      c4.134-0.694,8.79-1.658,13.958-2.885c6.422-1.52,13.543-3.573,21.366-6.161C962.346,1450.896,970.6,1447.641,979.288,1443.715z      "/><path fill="#FABD23" d="M1262.687,1572.324c-4.781-0.032-9.686,0.152-14.71,0.558c-5.023,0.408-10.327,0.971-15.908,1.696      c-5.586,0.722-11.542,1.623-17.87,2.696c-6.328,1.073-13.187,2.259-20.576,3.566c-3.511,0.624-7.691,1.404-12.542,2.349      c-4.852,0.945-10.081,2.088-15.686,3.426c-5.605,1.343-11.38,2.863-17.324,4.573c-5.946,1.704-11.764,3.588-17.459,5.642      c2.267-4.34,4.318-9.663,6.149-15.961c1.82-6.279,3.414-12.881,4.77-19.791c1.35-6.888,2.498-13.854,3.448-20.897      c0.95-7.019,1.73-13.528,2.341-19.52c0.614-5.98,1.066-11.129,1.361-15.461c0.292-4.325,0.483-7.292,0.575-8.914      c0.024-0.338,0.075-1.657,0.157-3.948c0.087-2.288,0.191-5.25,0.31-8.884c0.118-3.627,0.219-7.768,0.312-12.427      c0.084-4.646,0.121-9.459,0.094-14.446c-0.027-4.972-0.138-9.959-0.338-14.968c-0.199-4.992-0.503-9.689-0.906-14.097      c-0.408-4.392-0.932-8.314-1.57-11.757c-0.638-3.433-1.469-6.115-2.498-8.053c8.652-0.406,17.203-1.099,25.636-2.076      c8.438-0.979,16.621-2.177,24.56-3.595c9.716-1.738,18.827-3.608,27.322-5.618c8.495-2.005,15.922-3.904,22.285-5.692      c7.434-2.063,14.204-4.13,20.305-6.198l-2.065,58.338c-5.072-3.593-9.943-6.173-14.623-7.751      c-4.68-1.57-8.839-2.61-12.475-3.124c-4.262-0.565-8.273-0.594-12.042-0.087c-4.492,0.8-8.171,1.974-11.052,3.521      c-2.878,1.548-5.144,3.276-6.792,5.187c-1.65,1.911-2.793,3.943-3.429,6.089c-0.638,2.149-1.007,4.277-1.109,6.374      c-0.101,2.184,0.136,4.31,0.709,6.378c0.572,2.069,1.538,3.862,2.899,5.376c1.367,1.518,3.172,2.638,5.424,3.368      c2.26,0.732,4.965,0.814,8.133,0.254c2.627-0.469,5.048-1.465,7.268-2.994c2.223-1.527,4.127-3.143,5.726-4.849      c1.873-1.925,3.62-4.074,5.24-6.456l-2.1,51.909c-1.329-3.001-2.933-5.272-4.813-6.811c-1.882-1.532-3.736-2.585-5.56-3.15      c-1.831-0.566-3.489-0.822-4.977-0.774c-1.494,0.056-2.511,0.13-3.059,0.227c-5.913,1.051-10.402,3.545-13.468,7.483      c-3.08,3.95-4.745,8.631-5.001,14.05c-0.189,3.965,0.132,7.244,0.959,9.842c0.831,2.597,2.005,4.619,3.525,6.072      c1.517,1.45,3.341,2.375,5.46,2.774c2.114,0.398,4.366,0.386,6.749-0.036c3.67-0.648,7.645-2.126,11.928-4.434      c4.279-2.307,8.418-5.108,12.412-8.391c3.991-3.283,7.676-6.872,11.051-10.766c3.364-3.89,6.072-7.727,8.112-11.499      L1262.687,1572.324z"/><path fill="#FABD23" d="M1423.322,1556.041c-3.177-0.433-6.934-0.718-11.281-0.863c-4.347-0.145-8.886-0.142-13.62,0.01      c-4.737,0.157-9.435,0.373-14.091,0.653c-4.651,0.28-8.848,0.565-12.579,0.85c-3.738,0.287-6.804,0.537-9.21,0.754      c-2.397,0.21-3.69,0.326-3.873,0.341c-5.732,0.597-11.943,1.413-18.636,2.448c-5.773,0.957-12.366,2.182-19.794,3.68      c-7.425,1.498-15.239,3.361-23.437,5.591c2.687-7.038,5.239-14.864,7.65-23.468c2.409-8.577,4.639-17.613,6.7-27.104      c2.049-9.457,3.904-19.163,5.562-29.123c1.65-9.918,3.069-19.774,4.257-29.581c0.976-8.053,1.775-15.966,2.402-23.727      c0.631-7.742,1.039-15.128,1.227-22.157c0.189-7.014,0.196-13.61,0.029-19.805c-0.171-6.183-0.609-11.783-1.312-16.817      c9.051,0.711,17.307,0.967,24.771,0.759c7.464-0.208,14.098-0.583,19.89-1.128c3.653-0.343,6.913-0.713,9.785-1.102      c2.865-0.394,5.294-0.766,7.27-1.119c2.348-0.467,4.383-0.906,6.108-1.312c-2.623,6.185-5.17,12.871-7.649,20.064      c-2.484,7.215-4.743,14.616-6.79,22.202c-2.046,7.609-3.837,15.234-5.364,22.879c-1.529,7.669-2.684,14.985-3.457,21.941      c-0.998,8.877-1.264,16.456-0.795,22.722c0.473,6.279,1.648,11.346,3.525,15.193c1.882,3.854,4.386,6.599,7.517,8.223      c3.129,1.626,6.848,2.245,11.156,1.86c5.772-0.52,11.694-3.028,17.745-7.526c6.041-4.489,11.511-10.716,16.391-18.667      L1423.322,1556.041z"/><path fill="#FABD23" d="M1631.679,1427.783c-1.155,4.391-3.126,8.778-5.933,13.166c-2.801,4.392-6.191,8.297-10.158,11.709      c-3.984,3.416-8.43,6.098-13.345,8.051c-4.924,1.95-10.119,2.675-15.563,2.165c-4.823-0.444-8.737-1.628-11.728-3.557      c-2.996-1.923-5.217-4.328-6.659-7.214c-1.452-2.878-2.24-6.057-2.38-9.52c-0.147-3.46,0.28-6.992,1.276-10.602      c0.986-3.603,2.411-7.053,4.277-10.358c1.849-3.291,4.11-6.173,6.785-8.645c0.041,1.836,0.362,3.289,0.984,4.352      c0.611,1.063,1.35,1.851,2.211,2.365c0.923,0.614,1.984,1.015,3.204,1.208c2.836,0.261,5.05-0.287,6.64-1.633      c1.59-1.346,2.643-2.962,3.148-4.845c0.232-0.85,0.295-1.744,0.181-2.672c-0.113-0.928-0.442-1.81-0.981-2.646      c-0.546-0.831-1.365-1.559-2.466-2.182c-1.097-0.623-2.532-1.01-4.296-1.167c-0.971-0.09-2.402-0.082-4.284,0.01      c-1.877,0.097-4.067,0.575-6.562,1.443c-2.503,0.868-5.19,2.261-8.07,4.187c-2.88,1.93-5.779,4.639-8.691,8.145      c-2.924,3.503-5.736,7.947-8.457,13.325c-2.723,5.391-5.192,12.057-7.401,20.004c-1.517,5.455-2.283,10.252-2.295,14.398      c-0.005,4.151,0.481,7.752,1.467,10.796c0.985,3.054,2.382,5.61,4.192,7.664c1.822,2.061,3.788,3.731,5.92,5.014      c2.121,1.28,4.274,2.232,6.458,2.843c2.177,0.611,4.158,1.005,5.956,1.172c2.329,0.22,5.376,0.087,9.155-0.418      c3.769-0.495,7.7-1.681,11.798-3.549c4.083-1.863,8.065-4.596,11.922-8.193c3.854-3.588,7.132-8.397,9.834-14.411      c2.005,4.571,3.054,9.914,3.144,16.037c0.079,6.135-0.747,12.513-2.494,19.133c-2.382,9.037-6.347,17.648-11.9,25.839      c-5.577,8.213-12.303,15.346-20.204,21.388c-7.915,6.053-16.77,10.655-26.563,13.801c-9.805,3.148-20.062,4.193-30.739,3.122      c-7.867-0.785-14.799-2.754-20.779-5.888c-5.973-3.141-11.081-7.169-15.313-12.103c-4.229-4.919-7.553-10.539-9.977-16.862      c-2.414-6.301-4.054-13.036-4.919-20.195c-0.86-7.147-0.904-14.57-0.128-22.275c0.776-7.686,2.286-15.389,4.528-23.118      c2.464-8.481,5.862-16.913,10.19-25.303c4.32-8.362,9.343-16.309,15.074-23.84c5.712-7.512,12.021-14.456,18.914-20.827      c6.886-6.362,14.183-11.769,21.895-16.222c7.705-4.451,15.717-7.797,24.058-10.039c8.319-2.237,16.734-2.989,25.237-2.254      c7.727,0.669,14.294,2.126,19.726,4.356c5.425,2.243,9.895,4.999,13.391,8.285c3.501,3.291,6.214,6.93,8.147,10.914      c1.933,3.994,3.23,8.072,3.907,12.228c0.677,4.163,0.836,8.271,0.51,12.315      C1633.172,1420.728,1632.571,1424.429,1631.679,1427.783z"/><path fill="#FABD23" d="M1808.923,1498.195c-3.177,13.567-7.746,26.201-13.714,37.9c-5.979,11.742-13.252,21.82-21.81,30.207      c-8.571,8.41-18.399,14.738-29.475,18.972c-11.088,4.231-23.304,5.64-36.653,4.221c-13.236-1.409-24.048-5.257-32.444-11.535      c-8.367-6.258-14.57-14.226-18.598-23.889c-4.032-9.626-6.021-20.567-5.989-32.812c0.024-12.185,1.805-24.978,5.323-38.366      c2.581-9.824,6.004-19.17,10.263-28.05c4.255-8.848,9.054-16.998,14.398-24.45c5.323-7.434,11.136-14.098,17.429-20.001      c6.274-5.895,12.784-10.82,19.513-14.775c6.717-3.95,13.538-6.862,20.46-8.744c6.917-1.877,13.736-2.51,20.446-1.89      c11.286,1.051,20.948,4.627,28.97,10.745c8.053,6.14,14.282,14.219,18.699,24.242c4.426,10.073,6.966,21.743,7.615,35.032      C1814.011,1468.358,1812.54,1482.751,1808.923,1498.195z M1755.453,1481.178c1.612-6.611,2.556-12.745,2.827-18.43      c0.275-5.662-0.029-10.61-0.89-14.845c-0.857-4.228-2.278-7.611-4.24-10.155c-1.96-2.54-4.342-3.948-7.138-4.214      c-2.706-0.264-5.619,0.853-8.735,3.351c-3.126,2.496-6.151,5.828-9.094,9.993c-2.95,4.173-5.64,8.911-8.084,14.219      c-2.464,5.318-4.359,10.658-5.712,16.012c-1.314,5.198-2.049,10.071-2.218,14.625c-0.174,4.567,0.191,8.578,1.099,12.032      c0.909,3.465,2.375,6.285,4.41,8.45c2.037,2.174,4.656,3.423,7.856,3.747c3.109,0.312,6.207-0.355,9.297-2.01      c3.081-1.655,5.92-4.035,8.52-7.157c2.588-3.109,4.936-6.859,7.036-11.238      C1752.488,1491.183,1754.175,1486.39,1755.453,1481.178z"/><path fill="#FABD23" d="M1916.615,1597.128c-1.609-0.241-3.6-0.503-5.971-0.778c-1.988-0.261-4.436-0.495-7.352-0.694      c-2.907-0.203-6.189-0.369-9.824-0.502c-7.085-0.264-15.549-0.242-25.394,0.046c-9.834,0.289-20.857,1.143-33.053,2.563      c8.203-20.467,14.744-40.427,19.641-59.894c4.867-19.332,8.628-37.845,11.301-55.546c2.413-15.995,4.018-30.968,4.82-44.934      c0.8-13.885,1.022-26.656,0.669-38.314c8.967,1.805,17.09,3.064,24.351,3.784c7.273,0.718,13.586,1.151,18.952,1.293      c3.702,0.099,6.974,0.102,9.825,0.008c2.853-0.097,5.209-0.21,7.093-0.331c2.262-0.203,4.2-0.411,5.804-0.631      c0.779,17.15,2.392,34.239,4.828,51.269c2.46,17.148,6.055,34.518,10.805,52.107c8.307-17.368,15.333-34.689,21.108-51.964      c5.734-17.17,10.368-34.646,13.903-52.405l0.81,2.38l-0.81-2.38c9.112,1.817,17.477,3.091,25.068,3.82      c7.599,0.73,14.35,1.174,20.252,1.334c3.927,0.106,7.41,0.115,10.428,0.019c3.021-0.094,5.62-0.195,7.794-0.314      c2.474-0.195,4.613-0.403,6.43-0.613c-2.999,8.696-5.717,19.035-8.169,31.04c-2.465,12.057-4.525,25.051-6.166,39.002      c-1.182,9.969-2.114,20.274-2.79,30.929c-0.685,10.694-1.056,21.395-1.112,32.104c-0.058,10.757,0.272,21.403,0.98,31.942      c0.711,10.585,1.875,20.711,3.496,30.374c-1.926-0.259-4.146-0.53-6.645-0.812c-2.215-0.268-4.823-0.507-7.826-0.71      c-2.994-0.203-6.488-0.38-10.462-0.527c-7.563-0.278-16.493-0.278-26.786,0c-10.293,0.278-21.583,1.131-33.893,2.554      c3.017-4.586,5.798-10.486,8.333-17.691c2.52-7.188,4.813-14.836,6.869-22.93c2.051-8.072,3.851-16.106,5.414-24.101      c1.552-7.974,2.822-15.089,3.815-21.352c-3.486,5.543-6.894,11.189-10.223,16.94c-3.334,5.758-6.804,11.916-10.396,18.474      c-3.6,6.577-7.406,13.688-11.407,21.347c-4.009,7.678-8.438,16.253-13.287,25.723c-2.354-9.733-4.494-18.537-6.403-26.419      c-1.904-7.86-3.704-15.14-5.415-21.837c-1.713-6.688-3.412-13.004-5.108-18.965c-1.694-5.948-3.46-11.861-5.296-17.742      c-1.157,14.352-1.732,28.588-1.708,42.716C1913.935,1570.715,1914.831,1584.258,1916.615,1597.128z"/><path fill="#FABD23" d="M2246.733,1584.472c-5.219-0.333-10.542-0.443-15.954-0.326c-5.431,0.123-11.131,0.389-17.114,0.81      c-5.989,0.42-12.349,1.002-19.102,1.742c-6.741,0.749-14.051,1.583-21.922,2.503c-3.738,0.44-8.188,1.008-13.34,1.708      c-5.146,0.696-10.684,1.585-16.606,2.653c-5.917,1.073-11.996,2.327-18.23,3.764c-6.234,1.438-12.315,3.069-18.232,4.893      c1.897-4.46,3.416-9.973,4.569-16.538c1.153-6.541,2.01-13.439,2.568-20.673c0.556-7.222,0.88-14.531,0.977-21.932      c0.106-7.379,0.084-14.222-0.042-20.535c-0.125-6.292-0.312-11.719-0.565-16.288c-0.256-4.559-0.44-7.691-0.548-9.401      c-0.027-0.36-0.146-1.749-0.353-4.168c-0.215-2.419-0.488-5.548-0.841-9.385c-0.359-3.834-0.788-8.212-1.309-13.134      c-0.522-4.912-1.121-10.005-1.812-15.28c-0.681-5.26-1.467-10.546-2.339-15.852c-0.875-5.294-1.829-10.281-2.853-14.963      c-1.027-4.675-2.107-8.851-3.252-12.526c-1.145-3.67-2.404-6.555-3.783-8.662c9.343,0.087,18.53-0.13,27.549-0.665      c9.034-0.524,17.766-1.305,26.199-2.332c10.324-1.257,19.979-2.692,28.953-4.306c8.967-1.616,16.792-3.18,23.478-4.695      c7.806-1.74,14.898-3.523,21.262-5.347l5.531,61.652c-5.994-4.115-11.651-7.145-16.951-9.095      c-5.304-1.943-9.96-3.298-13.99-4.061c-4.706-0.853-9.077-1.126-13.102-0.82c-4.78,0.58-8.636,1.598-11.55,3.062      c-2.927,1.466-5.161,3.158-6.703,5.076c-1.536,1.931-2.512,4.009-2.916,6.241c-0.411,2.237-0.527,4.463-0.353,6.681      c0.177,2.307,0.71,4.571,1.607,6.796c0.901,2.226,2.186,4.185,3.871,5.867c1.684,1.692,3.801,2.991,6.345,3.9      c2.559,0.911,5.509,1.167,8.879,0.764c2.798-0.339,5.303-1.242,7.51-2.728c2.215-1.481,4.069-3.078,5.584-4.789      c1.783-1.926,3.402-4.098,4.842-6.521l4.63,54.879c-1.847-3.267-3.893-5.767-6.14-7.514c-2.254-1.742-4.407-2.969-6.478-3.687      c-2.061-0.711-3.904-1.08-5.519-1.117c-1.611-0.036-2.711-0.019-3.295,0.051c-6.292,0.746-10.844,3.117-13.659,7.101      c-2.818,3.997-4.011,8.853-3.576,14.582c0.329,4.192,1.114,7.688,2.358,10.491c1.25,2.805,2.791,5.021,4.639,6.649      c1.845,1.636,3.958,2.728,6.313,3.283c2.358,0.555,4.801,0.679,7.34,0.377c3.912-0.459,8.041-1.781,12.398-3.967      c4.344-2.18,8.481-4.891,12.393-8.128c3.909-3.235,7.439-6.816,10.593-10.738c3.151-3.917,5.589-7.816,7.304-11.696      L2246.733,1584.472z"/></g></g><g><path fill="#EDA49A" d="M2449.212,1187.737c-17.957-11.947-38.391-14.864-47.018-15.584       c-14.647-1.199-67.011,10.885-67.011,10.885s0.4,7.36,2.063,9.866c2.704,4.072,11.606,6.005,21.463,5.187       c-6.657,1.818-18.515,6.329-18.515,6.329s2.658,8.245,5.012,10.142c3.15,2.54,11.147,3.537,17.344,2.814       c-4.573,1.785-12.479,4.352-12.479,4.352s4.017,8.938,6.632,10.465c4.975,2.905,14.839,2.12,23.314,0.927       c-6.001,1.721-15.502,7.032-15.502,7.032s5.178,7.249,7.517,8.696c9.091,5.623,41.354,0.155,41.354,0.155       c4.039,9.3,15.756,28.715,36.383,28.707c3.35-0.001,31.368-58.348,31.368-58.348S2462.635,1196.627,2449.212,1187.737z"/><path fill="#D8776A" d="M2394.822,1192.944c-0.015,0.297-2.056,0.401-5.323,0.729c-3.269,0.335-7.771,0.886-12.729,1.689       c-9.92,1.585-17.925,3.251-18.06,2.728c-0.139-0.509,7.719-3.032,17.757-4.637c5.013-0.812,9.624-1.158,12.967-1.146       C2392.782,1192.326,2394.837,1192.708,2394.822,1192.944z"/><path fill="#D8776A" d="M2396.846,1211.748c0.011,0.281-1.912,0.592-5.001,1.101c-3.39,0.581-7.514,1.289-12.073,2.071       c-9.431,1.656-17.102,2.983-17.222,2.456c-0.119-0.514,7.394-2.693,16.888-4.36c4.745-0.836,9.089-1.359,12.257-1.526       C2394.866,1211.324,2396.839,1211.495,2396.846,1211.748z"/><path fill="#D8776A" d="M2396.846,1230.263c0.101,0.524-4.313,1.814-9.858,2.88c-5.545,1.067-10.122,1.507-10.222,0.983       c-0.101-0.525,4.312-1.814,9.858-2.881C2392.168,1230.178,2396.746,1229.738,2396.846,1230.263z"/><path fill="#EDA49A" d="M2464.674,1205.326c0,0,93.856,86.824,102.674,97.052c8.818,10.229,17.932,82.023,4.117,88.891      c-13.816,6.869-58.786,3.341-76.421-8.121c-17.635-11.463-65.485-120.86-65.485-120.86L2464.674,1205.326z"/><path fill="#D8776A" d="M2449.191,1187.472c0,0,82.316,103.303,89.591,102.892     C2546.057,1289.952,2463.299,1191.983,2449.191,1187.472z"/></g><g><path fill="#EDA49A" d="M2223.693,1196.921c20.286,7.324,34.788,22.013,40.499,28.519c9.678,11.059,31.12,60.336,31.12,60.336       s-6.154,4.057-9.157,4.211c-4.882,0.249-11.732-5.755-16.939-14.165c2.499,6.432,5.928,18.648,5.928,18.648       s-8.208,2.769-11.134,2.006c-3.916-1.021-9.475-6.855-12.581-12.266c1.285,4.738,3.927,12.62,3.927,12.62       s-9.574,2.089-12.358,0.895c-5.294-2.27-10.532-10.666-14.616-18.188c2.188,5.847,3.571,16.644,3.571,16.644       s-8.907,0.151-11.462-0.868c-9.929-3.962-24.728-33.147-24.728-33.147c-9.878,2.287-23.118,0.91-44.719-12.164       c-2.865-1.734,28.235-59.926,28.235-59.926S2208.561,1191.421,2223.693,1196.921z"/><path fill="#D8776A" d="M2251.867,1243.735c-0.23,0.189,0.901,1.89,2.58,4.712c1.675,2.826,3.911,6.773,6.216,11.236       c4.629,8.917,8.052,16.342,8.553,16.139c0.491-0.191-2.156-8.009-6.838-17.031c-2.33-4.512-4.796-8.424-6.794-11.103       C2253.578,1245.007,2252.048,1243.582,2251.867,1243.735z"/><path fill="#D8776A" d="M2235.549,1253.294c-0.232,0.159,0.663,1.889,2.091,4.675c1.55,3.07,3.435,6.807,5.518,10.936       c4.28,8.566,7.778,15.521,8.273,15.303c0.484-0.21-2.235-7.545-6.543-16.168c-2.152-4.311-4.315-8.114-6.066-10.759       C2237.068,1254.634,2235.757,1253.151,2235.549,1253.294z"/><path fill="#D8776A" d="M2220.667,1264.31c-0.481,0.231,1.108,4.546,3.55,9.637c2.442,5.092,4.812,9.033,5.293,8.802       s-1.108-4.546-3.55-9.637C2223.519,1268.02,2221.149,1264.079,2220.667,1264.31z"/><path fill="#EDA49A" d="M2201.419,1192.308c0,0-180.194-19.103-193.661-20.104c-13.468-1.002-49.353,30.133-46.653,45.324      c2.699,15.191,12.824,31.855,32.53,39.21c19.705,7.355,181.83,0.335,181.83,0.335L2201.419,1192.308z"/><path fill="#D8776A" d="M2201.419,1192.308c0,0-144.706-8.51-148.703-14.602     C2048.718,1171.615,2189.399,1183.652,2201.419,1192.308z"/></g><g><path fill="#123A76" d="M655.932,1166.887c0,0-53.308,7.499-81.988,0c-28.681-7.499-71.098-27.946-71.098-27.946      s82.228-28.781,104.916-18.936C630.45,1129.851,655.932,1166.887,655.932,1166.887z"/><path fill="#E38E82" d="M644.135,1121.623l-112.479-11.598c0,0-44.901,123.237-34.078,143.796      c5.459,10.37,47.869,28.791,57.584,29.996c9.714,1.204,63.064-39.66,63.064-39.66L644.135,1121.623z"/><path fill="#D8776A" d="M635.842,1156.552c0,0-76.341-15.587-119.207-2.117l8.924-28.75      c0,0,95.312-0.08,114.759,12.016L635.842,1156.552z" opacity=".5"/><linearGradient id="p" x1="323.763" x2="854.253" y1="1497.93" y2="725.259" gradientUnits="userSpaceOnUse"><stop offset="0" stop-color="#1c8ef4"/><stop offset="1" stop-color="#00cfdd"/></linearGradient><path fill="url(#p)" d="M502.845,1138.941      c46.523-9.837,106.049,0.75,153.087,27.946c17.727-54.809,35.302-178.026,31.651-189.807      c-3.651-11.781-9.006-43.472-18.338-50.223c-14.61-10.57-69.693,15.971-74.095,23.027      C590.748,956.94,501.746,1109.652,502.845,1138.941z"/><path fill="#00CFDD" d="M629.199,974.832c-62.161-0.641-75.849,132.569-47.49,130.762      C610.069,1103.787,647.578,975.021,629.199,974.832z" opacity=".5"/><path fill="#1C8EF4" d="M502.832,1138.904c46.498-9.817,106.033,0.822,153.064,27.99      c5.327-16.438,10.654-39.117,15.372-63.089c-7.306,12.101-19.101,28.081-31.43,29.909      C619.747,1136.681,535.101,1104.882,502.832,1138.904z" opacity=".5"/><path fill="#235DA3" d="M684.123,1025.745c0,0-33.102,132.232-28.191,141.142      C660.843,1175.797,692.885,1045.644,684.123,1025.745z"/></g><g><path fill="#E38E82" d="M765.674,1268.797c17.76,12.237,28.055,30.128,31.927,37.871c6.551,13.154,14.773,66.262,14.773,66.262       s-6.983,2.361-9.927,1.747c-4.784-0.999-9.885-8.546-12.784-18.003c0.783,6.855,0.997,19.542,0.997,19.542       s-8.643,0.593-11.278-0.888c-3.528-1.982-7.423-9.037-9.053-15.059c0.04,4.909,0.592,13.204,0.592,13.204       s-9.791-0.411-12.18-2.274c-4.544-3.54-7.477-12.991-9.517-21.304c0.631,6.211-0.773,17.005-0.773,17.005       s-8.654-2.117-10.866-3.751c-8.596-6.354-15.497-38.341-15.497-38.341c-10.134-0.297-32.512-3.969-40.162-23.125       c-1.243-3.111,42.531-50.788,42.531-50.788S752.435,1259.634,765.674,1268.797z"/><path fill="#D8776A" d="M781.032,1321.233c-0.269,0.124,0.392,2.057,1.299,5.213c0.903,3.159,2.061,7.545,3.157,12.447       c2.211,9.799,3.636,17.851,4.173,17.781c0.524-0.06-0.051-8.294-2.287-18.21c-1.108-4.956-2.499-9.366-3.751-12.465       C782.363,1322.898,781.246,1321.131,781.032,1321.233z"/><path fill="#D8776A" d="M762.821,1326.334c-0.265,0.094,0.16,1.995,0.834,5.052c0.718,3.364,1.593,7.456,2.559,11.98       c1.964,9.372,3.58,16.987,4.113,16.902c0.522-0.08-0.245-7.865-2.222-17.3c-0.986-4.716-2.112-8.944-3.133-11.947       C763.95,1328.015,763.058,1326.248,762.821,1326.334z"/><path fill="#D8776A" d="M745.63,1333.208c-0.524,0.101-0.084,4.678,0.985,10.223c1.068,5.545,2.359,9.958,2.883,9.857       c0.524-0.101,0.083-4.678-0.985-10.223C747.445,1337.52,746.154,1333.107,745.63,1333.208z"/><path fill="#E38E82" d="M733.42,1253.936c0,0-99.801-36.964-112.573-41.354c-12.771-4.39-118.414-17.396-119.662-2.017      c-1.248,15.378-18.392,42.526,14.791,66.291c17.1,12.248,187.221,44.292,187.221,44.292L733.42,1253.936z"/><path fill="#D8776A" d="M700.622,1241.807c0,0-106.149-35.66-108.468-42.568C589.835,1192.333,691.194,1230.382,700.622,1241.807     z"/></g></g></g><g><path fill="#1C8EF4" d="M774.812,527.981c-13.804-9.669-28.85-18.17-43.971-18.697c-1.808-0.062-7.293,0.531-0.887-0.351    c6.442-0.89,1.343-0.097-0.197,0.374c-2.017,0.615-3.991,1.443-5.887,2.49c-5.309,2.921-9.94,7.541-13.734,13.322    c-7.944,12.106-11.88,28.108-18.206,41.813c-6.785,14.7-15.923,22.099-28.754,23.908c-7.715,1.088-15.049,1.643-22.925-1.117    c-8.995-3.156-17.516-9.079-25.597-15.814c2.398,1.999,7.712-3.44,10.192-1.372c7.083,5.908,14.474,11.16,22.266,14.507    c4.149,1.784,8.396,3.022,12.641,3.416c0.852,0.078,1.701,0.137,2.549,0.144c-3.587-0.031-1.097,0.134-0.119-0.441    c1.646-0.969,3.41-1.555,5.03-2.64c10.846-7.267,16.214-22.691,21.558-36.913c5.574-14.833,11.946-29.371,23.308-36.5    c7.719-4.84,17.034-5.769,25.654-6.178c16.16-0.767,32.496,8.331,47.267,18.678C782.364,524.762,777.526,529.883,774.812,527.981    L774.812,527.981z"/><path fill="#FABD23" d="M2331.963,499.429c1.563,16.781,1.496,34.062-5.534,47.458c-0.842,1.603-4.073,6.073-0.134,0.945    c3.963-5.155,0.75-1.119-0.422-0.014c-1.533,1.448-3.23,2.751-5.079,3.881c-5.167,3.165-11.474,4.901-18.375,5.333    c-14.451,0.906-30.302-3.6-45.341-4.893c-16.131-1.386-27.084,2.888-35.011,13.139c-4.766,6.162-8.88,12.259-10.384,20.469    c-1.713,9.378-0.788,19.714,1.062,30.07c-0.55-3.074,6.808-4.995,6.239-8.175c-1.625-9.079-2.527-18.102-1.576-26.529    c0.506-4.488,1.532-8.79,3.292-12.674c0.354-0.778,0.724-1.545,1.138-2.286c-1.749,3.132-0.66,0.887,0.324,0.323    c1.658-0.95,3.04-2.193,4.785-3.063c11.685-5.824,27.743-2.848,42.745-0.446c15.646,2.504,31.432,4.169,43.252-2.172    c8.028-4.308,13.448-11.941,18.073-19.227c8.67-13.659,8.857-32.357,7.183-50.313    C2338.5,494.461,2331.654,496.129,2331.963,499.429L2331.963,499.429z"/><path fill="#1C8EF4" d="M1982.417,674.199c16.826,0.973,33.901,3.632,46.091,12.593c1.458,1.073,5.393,4.939,0.914,0.274    c-4.503-4.692-0.994-0.908-0.077,0.416c1.201,1.732,2.236,3.607,3.075,5.604c2.353,5.583,3.124,12.08,2.516,18.966    c-1.273,14.424-8.107,29.419-11.641,44.094c-3.792,15.74-1.209,27.211,7.737,36.586c5.377,5.637,10.788,10.619,18.679,13.337    c9.015,3.101,19.373,3.738,29.889,3.463c-3.122,0.082-3.917-7.48-7.146-7.395c-9.221,0.244-18.277-0.218-26.465-2.423    c-4.361-1.173-8.46-2.834-12.036-5.157c-0.716-0.467-1.42-0.947-2.09-1.469c2.834,2.2,0.778,0.785,0.367-0.272    c-0.69-1.782-1.712-3.335-2.31-5.19c-4.004-12.426,1.348-27.856,5.973-42.328c4.823-15.093,8.838-30.451,4.343-43.088    c-3.054-8.584-9.787-15.089-16.297-20.753c-12.203-10.622-30.661-13.612-48.665-14.652    C1978.487,666.991,1979.109,674.009,1982.417,674.199L1982.417,674.199z"/><path fill="#1C8EF4" d="M1917.134,1825.783c3.011,16.583,4.441,33.805-1.402,47.76c-0.7,1.669-3.533,6.403-0.053,0.953    c3.502-5.479,0.65-1.179-0.422,0.023c-1.402,1.575-2.98,3.021-4.724,4.307c-4.873,3.601-11.006,5.877-17.843,6.905    c-14.318,2.154-30.5-0.962-45.595-0.946c-16.19,0.016-26.733,5.223-33.741,16.122c-4.214,6.552-7.784,12.984-8.571,21.292    c-0.894,9.491,0.923,19.708,3.662,29.865c-0.814-3.015,6.349-5.566,5.508-8.685c-2.405-8.905-4.085-17.815-3.868-26.292    c0.115-4.515,0.765-8.89,2.182-12.912c0.286-0.806,0.587-1.602,0.936-2.376c-1.472,3.271-0.58,0.94,0.351,0.293    c1.569-1.09,2.838-2.448,4.501-3.466c11.136-6.814,27.392-5.24,42.546-4.148c15.804,1.139,31.675,1.43,42.901-5.91    c7.625-4.987,12.364-13.061,16.34-20.72c7.454-14.359,6.021-33.003,2.798-50.746    C1923.215,1820.269,1916.54,1822.523,1917.134,1825.783L1917.134,1825.783z"/><path fill="#FEF0CA" d="M1729.689,383.077c13.126,5.017,25.941,11.638,35.643,22.025c1.15,1.229,2.221,3.383,3.612,4.229    c-0.995-1.355-1.989-2.711-2.983-4.066c0.713,1.112,1.389,2.245,2.027,3.4c1.119,2.012,2.13,4.085,3.047,6.196    c2.403,5.532,4.434,11.495,5.486,17.443c1.903,10.783-0.402,22.369-5.101,32.16c-3.583,7.465-10.195,17.311-19.551,17.381    c-4.563,0.036-8.995-2.262-12.452-5.089c-0.995-0.813-1.86-2.023-2.893-2.747c4.929,3.457,3.978,6.698,2.257,2.498    c-1.064-2.601-1.53-5.433-0.947-8.211c2.108-10.004,14.871-16.221,24.346-15.449c5.589,0.456,10.737,3.244,14.89,6.894    c0.722,0.636,1.419,1.308,2.094,1.996c0.335,0.354,0.67,0.71,1.001,1.064c2.745,3.322,2.422,2.768-0.968-1.659    c1.487,3.591,3.854,6.859,5.341,10.506c4.429,10.874,6.148,22.401,2.543,33.793c-9.835,31.061-43.36,41.763-71.789,48.459    c1.296-0.306,5.005,9.308,6.452,8.969c29.717-6.999,66.972-19.417,73.187-54.102c2.371-13.224-2.183-27.127-9.093-38.35    c-5.936-9.636-13.57-21.528-24.77-25.379c-10.922-3.757-29.097,2.897-29.914,16.073c-0.33,5.283,2.737,9.562,5.643,13.645    c3.275,4.604,6.399,9.363,11.194,12.54c10.884,7.212,20.637,1.319,26.943-8.565c7.095-11.113,10.508-25.818,7.772-38.825    c-2.912-13.823-9.674-25.302-17.928-36.521c-10.504-14.275-25.169-23.017-41.543-29.275    C1726.068,375.188,1726.773,381.962,1729.689,383.077L1729.689,383.077z"/><path fill="#FEF0CA" d="M1190.758,1924.467c-3.446,14.691-5.278,30.072-1.889,44.953c0.4,1.762,1.67,4.011,1.584,5.758    c-0.606-1.701-1.211-3.401-1.818-5.101c0.559,1.302,1.159,2.586,1.801,3.849c1.115,2.207,2.349,4.354,3.673,6.442    c3.47,5.467,7.549,10.866,12.202,15.383c8.44,8.186,20.128,13.116,31.663,14.835c8.795,1.311,21.531,1.363,27.227-6.912    c2.78-4.036,3.408-9.359,2.976-14.135c-0.123-1.374-0.677-2.871-0.699-4.226c0.104,6.464,3.558,7.57,0.862,3.51    c-1.672-2.513-3.909-4.633-6.73-5.787c-10.163-4.151-23.377,3.449-28.399,12.339c-2.96,5.244-3.584,11.5-2.839,17.39    c0.13,1.025,0.307,2.05,0.513,3.063c0.113,0.511,0.228,1.023,0.342,1.531c1.301,4.441,1.003,3.82-0.891-1.86    c2.296,3.484,3.776,7.556,6.123,11.075c6.999,10.487,16.211,18.957,28.51,22.615c33.537,9.966,63.243-13.392,86.319-34.633    c-1.053,0.968,5.26,10.057,4.087,11.137c-24.122,22.203-57.601,47.843-92.179,32.476c-13.184-5.857-22.801-18.279-28.615-31.182    c-4.991-11.08-10.965-25.03-7.643-37.306c3.237-11.973,20.101-24.121,32.306-16.912c4.895,2.889,6.852,8.192,8.731,13.236    c2.12,5.684,4.47,11.328,4.405,17.504c-0.144,14.019-11.257,19.14-23.842,18.793c-14.152-0.387-29.282-6.21-39.196-16.477    c-10.535-10.914-16.667-23.84-21.668-37.935c-6.364-17.936-5.303-36.239-1.003-54.564    C1185.926,1916.496,1191.524,1921.203,1190.758,1924.467L1190.758,1924.467z"/><path fill="#00CFDD" d="M1370.577,348.763c0.937,4.741,1.766,9.5,2.377,14.292c0.442,3.473,0.657,6.941,0.986,10.424    c0.062,0.657,0.152,4.358,0.118,0.588c-0.046-5.147-0.598,6.006-0.452,4.651c-1.104,10.295-3.84,20.491-9.053,29.493    c-10.388,17.94-28.313,25.921-47.526,31.041c-18.161,4.841-37.761,8.587-51.027,23.097c-9.51,10.404-13.928,24.054-15.068,37.908    c-1.748,21.221,0.328,42.572,5.524,63.171c-1.139-4.523,1.155-9.947,0-14.521c-1.528-6.058-2.895-12.149-3.902-18.318    c-0.505-3.104-0.934-6.222-1.25-9.351c-0.142-1.409-0.252-2.819-0.352-4.23c-0.113-1.363-0.193-2.726-0.236-4.092    c-0.01,2.049-0.018,4.1-0.026,6.148c-1.058-7.5,1.936-17.583,4.59-24.583c5.639-14.883,17.142-25.762,31.763-31.837    c17.586-7.308,37.202-8.666,54.172-17.635c18.956-10.018,29.447-28.767,32.137-49.625c2.59-20.05,1.13-41.391-2.775-61.141    C1371.493,338.879,1369.653,344.087,1370.577,348.763L1370.577,348.763z" opacity=".5"/><path fill="#FEF0CA" d="M444.748,976.18c-0.937,4.741-1.766,9.497-2.374,14.292c-0.441,3.473-0.657,6.938-0.986,10.424    c-0.062,0.657-0.151,4.359-0.118,0.588c0.044-5.149,0.598,6.007,0.452,4.651c1.104,10.293,3.84,20.491,9.053,29.493    c10.388,17.941,28.313,25.918,47.526,31.039c18.16,4.841,37.762,8.586,51.027,23.099c9.51,10.401,13.925,24.054,15.067,37.906    c1.746,21.22-0.328,42.574-5.527,63.173c1.143-4.525-1.152-9.95,0-14.521c1.53-6.061,2.898-12.149,3.904-18.319    c0.505-3.101,0.932-6.222,1.25-9.349c0.141-1.412,0.251-2.819,0.351-4.233c0.114-1.36,0.19-2.726,0.236-4.091    c0.008,2.051,0.018,4.099,0.026,6.15c1.058-7.5-1.936-17.583-4.59-24.586c-5.64-14.88-17.144-25.758-31.763-31.835    c-17.586-7.31-37.202-8.665-54.171-17.634c-18.959-10.019-29.447-28.767-32.14-49.626c-2.588-20.052-1.127-41.393,2.775-61.143    C443.835,966.294,445.675,971.503,444.748,976.18L444.748,976.18z"/><path fill="#FABD23" d="M1063.575,511.118c-9.31,27.879-33.218,49.803-61.795,56.671c-0.331,0.08-0.074,6.656-0.074,7.259    c0,0.573,0.3,7.208,0.074,7.262c28.577-6.868,52.486-28.795,61.795-56.674c0.66-1.974,0.072-5.183,0.072-7.259    c0-1.712,0-3.422-0.02-5.133C1063.619,512.664,1063.401,511.644,1063.575,511.118L1063.575,511.118z"/><path fill="#FABD23" d="M2574.01,1136.473c-9.31,27.879-33.218,49.803-61.795,56.672c-0.332,0.08-0.075,6.656-0.075,7.259    c0,0.573,0.3,7.208,0.075,7.262c28.577-6.868,52.485-28.795,61.795-56.674c0.659-1.974,0.071-5.183,0.071-7.259    c0-1.712,0-3.422-0.02-5.133C2574.053,1138.019,2573.835,1136.999,2574.01,1136.473L2574.01,1136.473z"/><path fill="#FABD23" d="M1777.801,747.131c-29.353-1.535-56.862-18.728-71.103-44.438c-0.164-0.298-6.435,1.705-7.018,1.866    c-0.549,0.151-6.864,2.21-6.977,2.007c14.244,25.71,41.75,42.903,71.105,44.438c2.079,0.108,5.013-1.314,7.015-1.868    c1.648-0.458,3.298-0.914,4.941-1.389C1776.323,747.585,1777.247,747.1,1777.801,747.131L1777.801,747.131z"/><path fill="#FEF0CA" d="M1090.897,796.492c10.036,27.625,4.936,59.66-13.184,82.806c-0.208,0.267,4.082,5.259,4.456,5.732    c0.357,0.449,4.713,5.46,4.572,5.642c18.117-23.143,23.217-55.18,13.181-82.805c-0.714-1.958-3.165-4.107-4.457-5.732    c-1.065-1.34-2.13-2.68-3.208-4.01C1091.893,797.676,1091.084,797.013,1090.897,796.492L1090.897,796.492z"/></g></svg>